<?xml version="1.0" encoding="UTF-8" standalone="no"?><svg xmlns="http://www.w3.org/2000/svg" xmlns:xlink="http://www.w3.org/1999/xlink" contentStyleType="text/css" height="1122px" preserveAspectRatio="none" style="width:1309px;height:1122px;background:#FFFFFF;" version="1.1" viewBox="0 0 1309 1122" width="1309px" zoomAndPan="magnify"><defs/><g><rect fill="#FFFFFF" height="938.8047" style="stroke:#181818;stroke-width:1.0;" width="10" x="21" y="92.6094"/><rect fill="#FFFFFF" height="907.4531" style="stroke:#181818;stroke-width:1.0;" width="10" x="215" y="114.9609"/><rect fill="#FFFFFF" height="886.1016" style="stroke:#181818;stroke-width:1.0;" width="10" x="506" y="145.3125"/><rect fill="#FFFFFF" height="42.3516" style="stroke:#181818;stroke-width:1.0;" width="10" x="511" y="949.7109"/><rect fill="#FFFFFF" height="30.3516" style="stroke:#181818;stroke-width:1.0;" width="10" x="821" y="175.6641"/><rect fill="#FFFFFF" height="30.3516" style="stroke:#181818;stroke-width:1.0;" width="10" x="1002" y="261.7188"/><rect fill="#FFFFFF" height="30.3516" style="stroke:#181818;stroke-width:1.0;" width="10" x="1002" y="322.4219"/><rect fill="#FFFFFF" height="30.3516" style="stroke:#181818;stroke-width:1.0;" width="10" x="1002" y="383.125"/><rect fill="#FFFFFF" height="30.3516" style="stroke:#181818;stroke-width:1.0;" width="10" x="1002" y="443.8281"/><rect fill="#FFFFFF" height="30.3516" style="stroke:#181818;stroke-width:1.0;" width="10" x="1002" y="504.5313"/><rect fill="#FFFFFF" height="30.3516" style="stroke:#181818;stroke-width:1.0;" width="10" x="1002" y="565.2344"/><rect fill="#FFFFFF" height="30.3516" style="stroke:#181818;stroke-width:1.0;" width="10" x="1002" y="625.9375"/><rect fill="#FFFFFF" height="30.3516" style="stroke:#181818;stroke-width:1.0;" width="10" x="1002" y="686.6406"/><rect fill="#FFFFFF" height="30.3516" style="stroke:#181818;stroke-width:1.0;" width="10" x="1002" y="747.3438"/><rect fill="#FFFFFF" height="30.3516" style="stroke:#181818;stroke-width:1.0;" width="10" x="1002" y="808.0469"/><rect height="741.6953" style="stroke:#000000;stroke-width:1.5;fill:none;" width="900.5" x="402.5" y="221.0156"/><line style="stroke:#181818;stroke-width:0.5;fill:none;stroke-dasharray:5.0,5.0;" x1="26" x2="26" y1="82.6094" y2="1040.4141"/><line style="stroke:#181818;stroke-width:0.5;fill:none;stroke-dasharray:5.0,5.0;" x1="219.5" x2="219.5" y1="82.6094" y2="1040.4141"/><line style="stroke:#181818;stroke-width:0.5;fill:none;stroke-dasharray:5.0,5.0;" x1="510.5" x2="510.5" y1="82.6094" y2="1040.4141"/><line style="stroke:#181818;stroke-width:0.5;fill:none;stroke-dasharray:5.0,5.0;" x1="825.5" x2="825.5" y1="82.6094" y2="1040.4141"/><line style="stroke:#181818;stroke-width:0.5;fill:none;stroke-dasharray:5.0,5.0;" x1="1006.5" x2="1006.5" y1="82.6094" y2="1040.4141"/><line style="stroke:#181818;stroke-width:0.5;fill:none;stroke-dasharray:5.0,5.0;" x1="1212" x2="1212" y1="877.7031" y2="1040.4141"/><text fill="#000000" font-family="sans-serif" font-size="14" lengthAdjust="spacing" textLength="36" x="5" y="79.5332">Client</text><ellipse cx="26" cy="13.5" fill="#E2E2F0" rx="8" ry="8" style="stroke:#181818;stroke-width:0.5;"/><path d="M26,21.5 L26,48.5 M13,29.5 L39,29.5 M26,48.5 L13,63.5 M26,48.5 L39,63.5 " fill="none" style="stroke:#181818;stroke-width:0.5;"/><text fill="#000000" font-family="sans-serif" font-size="14" lengthAdjust="spacing" textLength="36" x="5" y="1053.9473">Client</text><ellipse cx="26" cy="1065.5234" fill="#E2E2F0" rx="8" ry="8" style="stroke:#181818;stroke-width:0.5;"/><path d="M26,1073.5234 L26,1100.5234 M13,1081.5234 L39,1081.5234 M26,1100.5234 L13,1115.5234 M26,1100.5234 L39,1115.5234 " fill="none" style="stroke:#181818;stroke-width:0.5;"/><rect fill="#E2E2F0" height="31.6094" rx="2.5" ry="2.5" style="stroke:#181818;stroke-width:0.5;" width="121" x="159.5" y="50"/><text fill="#000000" font-family="sans-serif" font-size="14" lengthAdjust="spacing" textLength="107" x="166.5" y="71.5332">ReviewController</text><rect fill="#E2E2F0" height="31.6094" rx="2.5" ry="2.5" style="stroke:#181818;stroke-width:0.5;" width="121" x="159.5" y="1039.4141"/><text fill="#000000" font-family="sans-serif" font-size="14" lengthAdjust="spacing" textLength="107" x="166.5" y="1060.9473">ReviewController</text><rect fill="#E2E2F0" height="31.6094" rx="2.5" ry="2.5" style="stroke:#181818;stroke-width:0.5;" width="197" x="412.5" y="50"/><text fill="#000000" font-family="sans-serif" font-size="14" lengthAdjust="spacing" textLength="183" x="419.5" y="71.5332">reviewService:ReviewService</text><rect fill="#E2E2F0" height="31.6094" rx="2.5" ry="2.5" style="stroke:#181818;stroke-width:0.5;" width="197" x="412.5" y="1039.4141"/><text fill="#000000" font-family="sans-serif" font-size="14" lengthAdjust="spacing" textLength="183" x="419.5" y="1060.9473">reviewService:ReviewService</text><rect fill="#E2E2F0" height="31.6094" rx="2.5" ry="2.5" style="stroke:#181818;stroke-width:0.5;" width="239" x="706.5" y="50"/><text fill="#000000" font-family="sans-serif" font-size="14" lengthAdjust="spacing" textLength="225" x="713.5" y="71.5332">reviewRepository:ReviewRepository</text><rect fill="#E2E2F0" height="31.6094" rx="2.5" ry="2.5" style="stroke:#181818;stroke-width:0.5;" width="239" x="706.5" y="1039.4141"/><text fill="#000000" font-family="sans-serif" font-size="14" lengthAdjust="spacing" textLength="225" x="713.5" y="1060.9473">reviewRepository:ReviewRepository</text><rect fill="#E2E2F0" height="31.6094" rx="2.5" ry="2.5" style="stroke:#181818;stroke-width:0.5;" width="103" x="955.5" y="50"/><text fill="#000000" font-family="sans-serif" font-size="14" lengthAdjust="spacing" textLength="89" x="962.5" y="71.5332">review:Review</text><rect fill="#E2E2F0" height="31.6094" rx="2.5" ry="2.5" style="stroke:#181818;stroke-width:0.5;" width="103" x="955.5" y="1039.4141"/><text fill="#000000" font-family="sans-serif" font-size="14" lengthAdjust="spacing" textLength="89" x="962.5" y="1060.9473">review:Review</text><rect fill="#E2E2F0" height="31.6094" rx="2.5" ry="2.5" style="stroke:#181818;stroke-width:0.5;" width="161" x="1132" y="1039.4141"/><text fill="#000000" font-family="sans-serif" font-size="14" lengthAdjust="spacing" textLength="147" x="1139" y="1060.9473">reviewUser:ReviewUser</text><rect fill="#FFFFFF" height="938.8047" style="stroke:#181818;stroke-width:1.0;" width="10" x="21" y="92.6094"/><rect fill="#FFFFFF" height="907.4531" style="stroke:#181818;stroke-width:1.0;" width="10" x="215" y="114.9609"/><rect fill="#FFFFFF" height="886.1016" style="stroke:#181818;stroke-width:1.0;" width="10" x="506" y="145.3125"/><rect fill="#FFFFFF" height="42.3516" style="stroke:#181818;stroke-width:1.0;" width="10" x="511" y="949.7109"/><rect fill="#FFFFFF" height="30.3516" style="stroke:#181818;stroke-width:1.0;" width="10" x="821" y="175.6641"/><rect fill="#FFFFFF" height="30.3516" style="stroke:#181818;stroke-width:1.0;" width="10" x="1002" y="261.7188"/><rect fill="#FFFFFF" height="30.3516" style="stroke:#181818;stroke-width:1.0;" width="10" x="1002" y="322.4219"/><rect fill="#FFFFFF" height="30.3516" style="stroke:#181818;stroke-width:1.0;" width="10" x="1002" y="383.125"/><rect fill="#FFFFFF" height="30.3516" style="stroke:#181818;stroke-width:1.0;" width="10" x="1002" y="443.8281"/><rect fill="#FFFFFF" height="30.3516" style="stroke:#181818;stroke-width:1.0;" width="10" x="1002" y="504.5313"/><rect fill="#FFFFFF" height="30.3516" style="stroke:#181818;stroke-width:1.0;" width="10" x="1002" y="565.2344"/><rect fill="#FFFFFF" height="30.3516" style="stroke:#181818;stroke-width:1.0;" width="10" x="1002" y="625.9375"/><rect fill="#FFFFFF" height="30.3516" style="stroke:#181818;stroke-width:1.0;" width="10" x="1002" y="686.6406"/><rect fill="#FFFFFF" height="30.3516" style="stroke:#181818;stroke-width:1.0;" width="10" x="1002" y="747.3438"/><rect fill="#FFFFFF" height="30.3516" style="stroke:#181818;stroke-width:1.0;" width="10" x="1002" y="808.0469"/><polygon fill="#181818" points="203,110.9609,213,114.9609,203,118.9609,207,114.9609" style="stroke:#181818;stroke-width:1.0;"/><line style="stroke:#181818;stroke-width:1.0;" x1="31" x2="209" y1="114.9609" y2="114.9609"/><text fill="#000000" font-family="sans-serif" font-size="13" font-weight="bold" lengthAdjust="spacing" textLength="7" x="38" y="110.1045">1</text><text fill="#000000" font-family="sans-serif" font-size="13" lengthAdjust="spacing" textLength="154" x="49" y="110.1045">GET /reviews/user/{idUser}</text><polygon fill="#181818" points="494,141.3125,504,145.3125,494,149.3125,498,145.3125" style="stroke:#181818;stroke-width:1.0;"/><line style="stroke:#181818;stroke-width:1.0;" x1="225" x2="500" y1="145.3125" y2="145.3125"/><text fill="#000000" font-family="sans-serif" font-size="13" font-weight="bold" lengthAdjust="spacing" textLength="7" x="232" y="140.4561">2</text><text fill="#000000" font-family="sans-serif" font-size="13" lengthAdjust="spacing" textLength="251" x="243" y="140.4561">reviewService.findAllReviewsByUser(idUser)</text><polygon fill="#181818" points="809,171.6641,819,175.6641,809,179.6641,813,175.6641" style="stroke:#181818;stroke-width:1.0;"/><line style="stroke:#181818;stroke-width:1.0;" x1="516" x2="815" y1="175.6641" y2="175.6641"/><text fill="#000000" font-family="sans-serif" font-size="13" font-weight="bold" lengthAdjust="spacing" textLength="7" x="523" y="170.8076">3</text><text fill="#000000" font-family="sans-serif" font-size="13" lengthAdjust="spacing" textLength="275" x="534" y="170.8076">reviewRepository.findAllReviewsByUser(idUser);</text><polygon fill="#181818" points="527,202.0156,517,206.0156,527,210.0156,523,206.0156" style="stroke:#181818;stroke-width:1.0;"/><line style="stroke:#181818;stroke-width:1.0;stroke-dasharray:2.0,2.0;" x1="521" x2="825" y1="206.0156" y2="206.0156"/><text fill="#000000" font-family="sans-serif" font-size="13" font-weight="bold" lengthAdjust="spacing" textLength="7" x="533" y="201.1592">4</text><text fill="#000000" font-family="sans-serif" font-size="13" lengthAdjust="spacing" textLength="42" x="544" y="201.1592">reviews</text><path d="M402.5,221.0156 L475.5,221.0156 L475.5,229.3672 L465.5,239.3672 L402.5,239.3672 L402.5,221.0156 " fill="#EEEEEE" style="stroke:#000000;stroke-width:1.5;"/><rect fill="none" height="741.6953" style="stroke:#000000;stroke-width:1.5;" width="900.5" x="402.5" y="221.0156"/><text fill="#000000" font-family="sans-serif" font-size="13" font-weight="bold" lengthAdjust="spacing" textLength="28" x="417.5" y="235.5107">loop</text><text fill="#000000" font-family="sans-serif" font-size="11" font-weight="bold" lengthAdjust="spacing" textLength="165" x="490.5" y="234.4346">[for each "review" in reviews]</text><polygon fill="#181818" points="990,257.7188,1000,261.7188,990,265.7188,994,261.7188" style="stroke:#181818;stroke-width:1.0;"/><line style="stroke:#181818;stroke-width:1.0;" x1="516" x2="996" y1="261.7188" y2="261.7188"/><text fill="#000000" font-family="sans-serif" font-size="13" font-weight="bold" lengthAdjust="spacing" textLength="7" x="523" y="256.8623">5</text><text fill="#000000" font-family="sans-serif" font-size="13" lengthAdjust="spacing" textLength="36" x="534" y="256.8623">getId()</text><polygon fill="#181818" points="527,288.0703,517,292.0703,527,296.0703,523,292.0703" style="stroke:#181818;stroke-width:1.0;"/><line style="stroke:#181818;stroke-width:1.0;stroke-dasharray:2.0,2.0;" x1="521" x2="1006" y1="292.0703" y2="292.0703"/><text fill="#000000" font-family="sans-serif" font-size="13" font-weight="bold" lengthAdjust="spacing" textLength="7" x="533" y="287.2139">6</text><text fill="#000000" font-family="sans-serif" font-size="13" lengthAdjust="spacing" textLength="10" x="544" y="287.2139">id</text><polygon fill="#181818" points="990,318.4219,1000,322.4219,990,326.4219,994,322.4219" style="stroke:#181818;stroke-width:1.0;"/><line style="stroke:#181818;stroke-width:1.0;" x1="516" x2="996" y1="322.4219" y2="322.4219"/><text fill="#000000" font-family="sans-serif" font-size="13" font-weight="bold" lengthAdjust="spacing" textLength="7" x="523" y="317.5654">7</text><text fill="#000000" font-family="sans-serif" font-size="13" lengthAdjust="spacing" textLength="49" x="534" y="317.5654">getSku()</text><polygon fill="#181818" points="527,348.7734,517,352.7734,527,356.7734,523,352.7734" style="stroke:#181818;stroke-width:1.0;"/><line style="stroke:#181818;stroke-width:1.0;stroke-dasharray:2.0,2.0;" x1="521" x2="1006" y1="352.7734" y2="352.7734"/><text fill="#000000" font-family="sans-serif" font-size="13" font-weight="bold" lengthAdjust="spacing" textLength="7" x="533" y="347.917">8</text><text fill="#000000" font-family="sans-serif" font-size="13" lengthAdjust="spacing" textLength="21" x="544" y="347.917">sku</text><polygon fill="#181818" points="990,379.125,1000,383.125,990,387.125,994,383.125" style="stroke:#181818;stroke-width:1.0;"/><line style="stroke:#181818;stroke-width:1.0;" x1="516" x2="996" y1="383.125" y2="383.125"/><text fill="#000000" font-family="sans-serif" font-size="13" font-weight="bold" lengthAdjust="spacing" textLength="7" x="523" y="378.2686">9</text><text fill="#000000" font-family="sans-serif" font-size="13" lengthAdjust="spacing" textLength="64" x="534" y="378.2686">getStatus()</text><polygon fill="#181818" points="527,409.4766,517,413.4766,527,417.4766,523,413.4766" style="stroke:#181818;stroke-width:1.0;"/><line style="stroke:#181818;stroke-width:1.0;stroke-dasharray:2.0,2.0;" x1="521" x2="1006" y1="413.4766" y2="413.4766"/><text fill="#000000" font-family="sans-serif" font-size="13" font-weight="bold" lengthAdjust="spacing" textLength="14" x="533" y="408.6201">10</text><text fill="#000000" font-family="sans-serif" font-size="13" lengthAdjust="spacing" textLength="36" x="551" y="408.6201">status</text><polygon fill="#181818" points="990,439.8281,1000,443.8281,990,447.8281,994,443.8281" style="stroke:#181818;stroke-width:1.0;"/><line style="stroke:#181818;stroke-width:1.0;" x1="516" x2="996" y1="443.8281" y2="443.8281"/><text fill="#000000" font-family="sans-serif" font-size="13" font-weight="bold" lengthAdjust="spacing" textLength="14" x="523" y="438.9717">11</text><text fill="#000000" font-family="sans-serif" font-size="13" lengthAdjust="spacing" textLength="51" x="541" y="438.9717">getText()</text><polygon fill="#181818" points="527,470.1797,517,474.1797,527,478.1797,523,474.1797" style="stroke:#181818;stroke-width:1.0;"/><line style="stroke:#181818;stroke-width:1.0;stroke-dasharray:2.0,2.0;" x1="521" x2="1006" y1="474.1797" y2="474.1797"/><text fill="#000000" font-family="sans-serif" font-size="13" font-weight="bold" lengthAdjust="spacing" textLength="14" x="533" y="469.3232">12</text><text fill="#000000" font-family="sans-serif" font-size="13" lengthAdjust="spacing" textLength="22" x="551" y="469.3232">text</text><polygon fill="#181818" points="990,500.5313,1000,504.5313,990,508.5313,994,504.5313" style="stroke:#181818;stroke-width:1.0;"/><line style="stroke:#181818;stroke-width:1.0;" x1="516" x2="996" y1="504.5313" y2="504.5313"/><text fill="#000000" font-family="sans-serif" font-size="13" font-weight="bold" lengthAdjust="spacing" textLength="14" x="523" y="499.6748">13</text><text fill="#000000" font-family="sans-serif" font-size="13" lengthAdjust="spacing" textLength="63" x="541" y="499.6748">getRating()</text><polygon fill="#181818" points="527,530.8828,517,534.8828,527,538.8828,523,534.8828" style="stroke:#181818;stroke-width:1.0;"/><line style="stroke:#181818;stroke-width:1.0;stroke-dasharray:2.0,2.0;" x1="521" x2="1006" y1="534.8828" y2="534.8828"/><text fill="#000000" font-family="sans-serif" font-size="13" font-weight="bold" lengthAdjust="spacing" textLength="14" x="533" y="530.0264">14</text><text fill="#000000" font-family="sans-serif" font-size="13" lengthAdjust="spacing" textLength="32" x="551" y="530.0264">rating</text><polygon fill="#181818" points="990,561.2344,1000,565.2344,990,569.2344,994,565.2344" style="stroke:#181818;stroke-width:1.0;"/><line style="stroke:#181818;stroke-width:1.0;" x1="516" x2="996" y1="565.2344" y2="565.2344"/><text fill="#000000" font-family="sans-serif" font-size="13" font-weight="bold" lengthAdjust="spacing" textLength="14" x="523" y="560.3779">15</text><text fill="#000000" font-family="sans-serif" font-size="13" lengthAdjust="spacing" textLength="88" x="541" y="560.3779">getTotalVotes()</text><polygon fill="#181818" points="527,591.5859,517,595.5859,527,599.5859,523,595.5859" style="stroke:#181818;stroke-width:1.0;"/><line style="stroke:#181818;stroke-width:1.0;stroke-dasharray:2.0,2.0;" x1="521" x2="1006" y1="595.5859" y2="595.5859"/><text fill="#000000" font-family="sans-serif" font-size="13" font-weight="bold" lengthAdjust="spacing" textLength="14" x="533" y="590.7295">16</text><text fill="#000000" font-family="sans-serif" font-size="13" lengthAdjust="spacing" textLength="59" x="551" y="590.7295">totalVotes</text><polygon fill="#181818" points="990,621.9375,1000,625.9375,990,629.9375,994,625.9375" style="stroke:#181818;stroke-width:1.0;"/><line style="stroke:#181818;stroke-width:1.0;" x1="516" x2="996" y1="625.9375" y2="625.9375"/><text fill="#000000" font-family="sans-serif" font-size="13" font-weight="bold" lengthAdjust="spacing" textLength="14" x="523" y="621.0811">17</text><text fill="#000000" font-family="sans-serif" font-size="13" lengthAdjust="spacing" textLength="76" x="541" y="621.0811">getUpVotes()</text><polygon fill="#181818" points="527,652.2891,517,656.2891,527,660.2891,523,656.2891" style="stroke:#181818;stroke-width:1.0;"/><line style="stroke:#181818;stroke-width:1.0;stroke-dasharray:2.0,2.0;" x1="521" x2="1006" y1="656.2891" y2="656.2891"/><text fill="#000000" font-family="sans-serif" font-size="13" font-weight="bold" lengthAdjust="spacing" textLength="14" x="533" y="651.4326">18</text><text fill="#000000" font-family="sans-serif" font-size="13" lengthAdjust="spacing" textLength="48" x="551" y="651.4326">upVotes</text><polygon fill="#181818" points="990,682.6406,1000,686.6406,990,690.6406,994,686.6406" style="stroke:#181818;stroke-width:1.0;"/><line style="stroke:#181818;stroke-width:1.0;" x1="516" x2="996" y1="686.6406" y2="686.6406"/><text fill="#000000" font-family="sans-serif" font-size="13" font-weight="bold" lengthAdjust="spacing" textLength="14" x="523" y="681.7842">19</text><text fill="#000000" font-family="sans-serif" font-size="13" lengthAdjust="spacing" textLength="92" x="541" y="681.7842">getDownVotes()</text><polygon fill="#181818" points="527,712.9922,517,716.9922,527,720.9922,523,716.9922" style="stroke:#181818;stroke-width:1.0;"/><line style="stroke:#181818;stroke-width:1.0;stroke-dasharray:2.0,2.0;" x1="521" x2="1006" y1="716.9922" y2="716.9922"/><text fill="#000000" font-family="sans-serif" font-size="13" font-weight="bold" lengthAdjust="spacing" textLength="14" x="533" y="712.1357">20</text><text fill="#000000" font-family="sans-serif" font-size="13" lengthAdjust="spacing" textLength="64" x="551" y="712.1357">downVotes</text><polygon fill="#181818" points="990,743.3438,1000,747.3438,990,751.3438,994,747.3438" style="stroke:#181818;stroke-width:1.0;"/><line style="stroke:#181818;stroke-width:1.0;" x1="516" x2="996" y1="747.3438" y2="747.3438"/><text fill="#000000" font-family="sans-serif" font-size="13" font-weight="bold" lengthAdjust="spacing" textLength="14" x="523" y="742.4873">21</text><text fill="#000000" font-family="sans-serif" font-size="13" lengthAdjust="spacing" textLength="129" x="541" y="742.4873">getCreationDateTime()</text><polygon fill="#181818" points="527,773.6953,517,777.6953,527,781.6953,523,777.6953" style="stroke:#181818;stroke-width:1.0;"/><line style="stroke:#181818;stroke-width:1.0;stroke-dasharray:2.0,2.0;" x1="521" x2="1006" y1="777.6953" y2="777.6953"/><text fill="#000000" font-family="sans-serif" font-size="13" font-weight="bold" lengthAdjust="spacing" textLength="14" x="533" y="772.8389">22</text><text fill="#000000" font-family="sans-serif" font-size="13" lengthAdjust="spacing" textLength="101" x="551" y="772.8389">creationDateTime</text><polygon fill="#181818" points="990,804.0469,1000,808.0469,990,812.0469,994,808.0469" style="stroke:#181818;stroke-width:1.0;"/><line style="stroke:#181818;stroke-width:1.0;" x1="516" x2="996" y1="808.0469" y2="808.0469"/><text fill="#000000" font-family="sans-serif" font-size="13" font-weight="bold" lengthAdjust="spacing" textLength="14" x="523" y="803.1904">23</text><text fill="#000000" font-family="sans-serif" font-size="13" lengthAdjust="spacing" textLength="74" x="541" y="803.1904">getFunFact()</text><polygon fill="#181818" points="527,834.3984,517,838.3984,527,842.3984,523,838.3984" style="stroke:#181818;stroke-width:1.0;"/><line style="stroke:#181818;stroke-width:1.0;stroke-dasharray:2.0,2.0;" x1="521" x2="1006" y1="838.3984" y2="838.3984"/><text fill="#000000" font-family="sans-serif" font-size="13" font-weight="bold" lengthAdjust="spacing" textLength="14" x="533" y="833.542">24</text><text fill="#000000" font-family="sans-serif" font-size="13" lengthAdjust="spacing" textLength="43" x="551" y="833.542">funFact</text><polygon fill="#181818" points="1120,864.75,1130,868.75,1120,872.75,1124,868.75" style="stroke:#181818;stroke-width:1.0;"/><line style="stroke:#181818;stroke-width:1.0;" x1="516" x2="1126" y1="868.75" y2="868.75"/><text fill="#000000" font-family="sans-serif" font-size="13" font-weight="bold" lengthAdjust="spacing" textLength="14" x="523" y="863.8936">25</text><text fill="#000000" font-family="sans-serif" font-size="13" lengthAdjust="spacing" textLength="574" x="541" y="863.8936">new ReviewUser(id,sku,status,text,rating,totalVotes,upVotes,downVotes,creationDateTime,funFact)</text><rect fill="#E2E2F0" height="31.6094" rx="2.5" ry="2.5" style="stroke:#181818;stroke-width:0.5;" width="161" x="1132" y="846.3984"/><text fill="#000000" font-family="sans-serif" font-size="14" lengthAdjust="spacing" textLength="147" x="1139" y="867.9316">reviewUser:ReviewUser</text><polygon fill="#181818" points="527,907.3594,517,911.3594,527,915.3594,523,911.3594" style="stroke:#181818;stroke-width:1.0;"/><line style="stroke:#181818;stroke-width:1.0;stroke-dasharray:2.0,2.0;" x1="521" x2="1211.5" y1="911.3594" y2="911.3594"/><text fill="#000000" font-family="sans-serif" font-size="13" font-weight="bold" lengthAdjust="spacing" textLength="14" x="533" y="906.5029">26</text><text fill="#000000" font-family="sans-serif" font-size="13" lengthAdjust="spacing" textLength="62" x="551" y="906.5029">reviewUser</text><line style="stroke:#181818;stroke-width:1.0;" x1="516" x2="563" y1="936.7109" y2="936.7109"/><line style="stroke:#181818;stroke-width:1.0;" x1="563" x2="563" y1="936.7109" y2="949.7109"/><line style="stroke:#181818;stroke-width:1.0;" x1="522" x2="563" y1="949.7109" y2="949.7109"/><polygon fill="#181818" points="532,945.7109,522,949.7109,532,953.7109,528,949.7109" style="stroke:#181818;stroke-width:1.0;"/><text fill="#000000" font-family="sans-serif" font-size="13" font-weight="bold" lengthAdjust="spacing" textLength="14" x="528" y="931.8545">27</text><text fill="#000000" font-family="sans-serif" font-size="13" lengthAdjust="spacing" textLength="168" x="546" y="931.8545">reviewsUser.add(reviewUser);</text><polygon fill="#181818" points="236,988.0625,226,992.0625,236,996.0625,232,992.0625" style="stroke:#181818;stroke-width:1.0;"/><line style="stroke:#181818;stroke-width:1.0;stroke-dasharray:2.0,2.0;" x1="230" x2="505" y1="992.0625" y2="992.0625"/><text fill="#000000" font-family="sans-serif" font-size="13" font-weight="bold" lengthAdjust="spacing" textLength="14" x="242" y="987.2061">28</text><text fill="#000000" font-family="sans-serif" font-size="13" lengthAdjust="spacing" textLength="69" x="260" y="987.2061">reviewsUser</text><polygon fill="#181818" points="42,1018.4141,32,1022.4141,42,1026.4141,38,1022.4141" style="stroke:#181818;stroke-width:1.0;"/><line style="stroke:#181818;stroke-width:1.0;stroke-dasharray:2.0,2.0;" x1="36" x2="219" y1="1022.4141" y2="1022.4141"/><text fill="#000000" font-family="sans-serif" font-size="13" font-weight="bold" lengthAdjust="spacing" textLength="14" x="48" y="1017.5576">29</text><text fill="#000000" font-family="sans-serif" font-size="13" lengthAdjust="spacing" textLength="77" x="66" y="1017.5576">list of reviews</text><!--MD5=[4a1134ec8059849b3210f5cbb58d169a]
@startuml
'https://plantuml.com/sequence-diagram


autoactivate on
autonumber

actor "Client" as Client
participant "ReviewController" as Ctrl
participant "reviewService:ReviewService" as service
participant "reviewRepository:ReviewRepository" as Repo
participant "review:Review" as review
participant "reviewUser:ReviewUser" as reviewUser

activate Client

Client -> Ctrl : GET /reviews/user/{idUser}
Ctrl -> service : reviewService.findAllReviewsByUser(idUser)
service -> Repo: reviewRepository.findAllReviewsByUser(idUser);
Repo - -> service: reviews
loop for each "review" in reviews
    service -> review: getId()
    review - -> service: id
    service -> review: getSku()
    review - -> service: sku
    service -> review: getStatus()
    review - -> service: status
    service -> review: getText()
    review - -> service: text
    service -> review: getRating()
    review - -> service: rating
    service -> review: getTotalVotes()
    review - -> service: totalVotes
    service -> review: getUpVotes()
    review - -> service: upVotes
    service -> review: getDownVotes()
    review - -> service: downVotes
    service -> review: getCreationDateTime()
    review - -> service: creationDateTime
    service -> review: getFunFact()
    review - -> service: funFact
    service -> reviewUser**: new ReviewUser(id,sku,status,text,rating,totalVotes,upVotes,downVotes,creationDateTime,funFact)
    reviewUser - -> service: reviewUser
    service -> service: reviewsUser.add(reviewUser);
end loop
service - -> Ctrl: reviewsUser
Ctrl - -> Client: list of reviews

@enduml

@startuml


autoactivate on
autonumber

actor "Client" as Client
participant "ReviewController" as Ctrl
participant "reviewService:ReviewService" as service
participant "reviewRepository:ReviewRepository" as Repo
participant "review:Review" as review
participant "reviewUser:ReviewUser" as reviewUser

activate Client

Client -> Ctrl : GET /reviews/user/{idUser}
Ctrl -> service : reviewService.findAllReviewsByUser(idUser)
service -> Repo: reviewRepository.findAllReviewsByUser(idUser);
Repo - -> service: reviews
loop for each "review" in reviews
    service -> review: getId()
    review - -> service: id
    service -> review: getSku()
    review - -> service: sku
    service -> review: getStatus()
    review - -> service: status
    service -> review: getText()
    review - -> service: text
    service -> review: getRating()
    review - -> service: rating
    service -> review: getTotalVotes()
    review - -> service: totalVotes
    service -> review: getUpVotes()
    review - -> service: upVotes
    service -> review: getDownVotes()
    review - -> service: downVotes
    service -> review: getCreationDateTime()
    review - -> service: creationDateTime
    service -> review: getFunFact()
    review - -> service: funFact
    service -> reviewUser**: new ReviewUser(id,sku,status,text,rating,totalVotes,upVotes,downVotes,creationDateTime,funFact)
    reviewUser - -> service: reviewUser
    service -> service: reviewsUser.add(reviewUser);
end loop
service - -> Ctrl: reviewsUser
Ctrl - -> Client: list of reviews

@enduml

PlantUML version 1.2022.5(Sat Apr 30 11:55:52 BST 2022)
(GPL source distribution)
Java Runtime: OpenJDK Runtime Environment
JVM: OpenJDK 64-Bit Server VM
Default Encoding: Cp1252
Language: pt
Country: PT
--></g></svg>