<?xml version="1.0" encoding="UTF-8" standalone="no"?><svg xmlns="http://www.w3.org/2000/svg" xmlns:xlink="http://www.w3.org/1999/xlink" contentStyleType="text/css" height="751px" preserveAspectRatio="none" style="width:1163px;height:751px;background:#FFFFFF;" version="1.1" viewBox="0 0 1163 751" width="1163px" zoomAndPan="magnify"><defs/><g><rect fill="#FFFFFF" height="570.0781" style="stroke:#181818;stroke-width:1.0;" width="10" x="23" y="91.4883"/><rect fill="#FFFFFF" height="539.7676" style="stroke:#181818;stroke-width:1.0;" width="10" x="194" y="112.7988"/><rect fill="#FFFFFF" height="481.1465" style="stroke:#181818;stroke-width:1.0;" width="10" x="426" y="142.1094"/><rect fill="#FFFFFF" height="29.3105" style="stroke:#181818;stroke-width:1.0;" width="10" x="670" y="171.4199"/><rect fill="#FFFFFF" height="155.5527" style="stroke:#181818;stroke-width:1.0;" width="10" x="908.5" y="506.0137"/><rect fill="#FFFFFF" height="126.2422" style="stroke:#181818;stroke-width:1.0;" width="10" x="913.5" y="535.3242"/><rect fill="#FFFFFF" height="96.9316" style="stroke:#181818;stroke-width:1.0;" width="10" x="918.5" y="564.6348"/><rect fill="#FFFFFF" height="67.6211" style="stroke:#181818;stroke-width:1.0;" width="10" x="923.5" y="593.9453"/><rect fill="#FFFFFF" height="29.3105" style="stroke:#181818;stroke-width:1.0;" width="10" x="1089.5" y="230.041"/><rect fill="#FFFFFF" height="29.3105" style="stroke:#181818;stroke-width:1.0;" width="10" x="1089.5" y="288.6621"/><rect fill="#FFFFFF" height="29.3105" style="stroke:#181818;stroke-width:1.0;" width="10" x="1089.5" y="347.2832"/><rect fill="#FFFFFF" height="29.3105" style="stroke:#181818;stroke-width:1.0;" width="10" x="1089.5" y="405.9043"/><line style="stroke:#181818;stroke-width:0.5;stroke-dasharray:5.0,5.0;" x1="28" x2="28" y1="81.4883" y2="670.5664"/><line style="stroke:#181818;stroke-width:0.5;stroke-dasharray:5.0,5.0;" x1="199" x2="199" y1="81.4883" y2="670.5664"/><line style="stroke:#181818;stroke-width:0.5;stroke-dasharray:5.0,5.0;" x1="431" x2="431" y1="81.4883" y2="670.5664"/><line style="stroke:#181818;stroke-width:0.5;stroke-dasharray:5.0,5.0;" x1="675" x2="675" y1="81.4883" y2="670.5664"/><line style="stroke:#181818;stroke-width:0.5;stroke-dasharray:5.0,5.0;" x1="913" x2="913" y1="473.959" y2="670.5664"/><line style="stroke:#181818;stroke-width:0.5;stroke-dasharray:5.0,5.0;" x1="1094" x2="1094" y1="81.4883" y2="670.5664"/><text fill="#000000" font-family="sans-serif" font-size="14" lengthAdjust="spacing" textLength="40" x="5" y="78.5352">Client</text><ellipse cx="28" cy="13.5" fill="#E2E2F0" rx="8" ry="8" style="stroke:#181818;stroke-width:0.5;"/><path d="M28,21.5 L28,48.5 M15,29.5 L41,29.5 M28,48.5 L15,63.5 M28,48.5 L41,63.5 " fill="none" style="stroke:#181818;stroke-width:0.5;"/><text fill="#000000" font-family="sans-serif" font-size="14" lengthAdjust="spacing" textLength="40" x="5" y="683.1016">Client</text><ellipse cx="28" cy="694.5547" fill="#E2E2F0" rx="8" ry="8" style="stroke:#181818;stroke-width:0.5;"/><path d="M28,702.5547 L28,729.5547 M15,710.5547 L41,710.5547 M28,729.5547 L15,744.5547 M28,729.5547 L41,744.5547 " fill="none" style="stroke:#181818;stroke-width:0.5;"/><rect fill="#E2E2F0" height="30.4883" rx="2.5" ry="2.5" style="stroke:#181818;stroke-width:0.5;" width="144" x="127" y="50"/><text fill="#000000" font-family="sans-serif" font-size="14" lengthAdjust="spacing" textLength="130" x="134" y="70.5352">ProductsController</text><rect fill="#E2E2F0" height="30.4883" rx="2.5" ry="2.5" style="stroke:#181818;stroke-width:0.5;" width="144" x="127" y="669.5664"/><text fill="#000000" font-family="sans-serif" font-size="14" lengthAdjust="spacing" textLength="130" x="134" y="690.1016">ProductsController</text><rect fill="#E2E2F0" height="30.4883" rx="2.5" ry="2.5" style="stroke:#181818;stroke-width:0.5;" width="228" x="317" y="50"/><text fill="#000000" font-family="sans-serif" font-size="14" lengthAdjust="spacing" textLength="214" x="324" y="70.5352">productService:ProductsService</text><rect fill="#E2E2F0" height="30.4883" rx="2.5" ry="2.5" style="stroke:#181818;stroke-width:0.5;" width="228" x="317" y="669.5664"/><text fill="#000000" font-family="sans-serif" font-size="14" lengthAdjust="spacing" textLength="214" x="324" y="690.1016">productService:ProductsService</text><rect fill="#E2E2F0" height="30.4883" rx="2.5" ry="2.5" style="stroke:#181818;stroke-width:0.5;" width="240" x="555" y="50"/><text fill="#000000" font-family="sans-serif" font-size="14" lengthAdjust="spacing" textLength="226" x="562" y="70.5352">productRepo:ProductsRepository</text><rect fill="#E2E2F0" height="30.4883" rx="2.5" ry="2.5" style="stroke:#181818;stroke-width:0.5;" width="240" x="555" y="669.5664"/><text fill="#000000" font-family="sans-serif" font-size="14" lengthAdjust="spacing" textLength="226" x="562" y="690.1016">productRepo:ProductsRepository</text><rect fill="#E2E2F0" height="30.4883" rx="2.5" ry="2.5" style="stroke:#181818;stroke-width:0.5;" width="217" x="805" y="669.5664"/><text fill="#000000" font-family="sans-serif" font-size="14" lengthAdjust="spacing" textLength="203" x="812" y="690.1016">productDetails:ProductDetails</text><rect fill="#E2E2F0" height="30.4883" rx="2.5" ry="2.5" style="stroke:#181818;stroke-width:0.5;" width="125" x="1032" y="50"/><text fill="#000000" font-family="sans-serif" font-size="14" lengthAdjust="spacing" textLength="111" x="1039" y="70.5352">product:Product</text><rect fill="#E2E2F0" height="30.4883" rx="2.5" ry="2.5" style="stroke:#181818;stroke-width:0.5;" width="125" x="1032" y="669.5664"/><text fill="#000000" font-family="sans-serif" font-size="14" lengthAdjust="spacing" textLength="111" x="1039" y="690.1016">product:Product</text><rect fill="#FFFFFF" height="570.0781" style="stroke:#181818;stroke-width:1.0;" width="10" x="23" y="91.4883"/><rect fill="#FFFFFF" height="539.7676" style="stroke:#181818;stroke-width:1.0;" width="10" x="194" y="112.7988"/><rect fill="#FFFFFF" height="481.1465" style="stroke:#181818;stroke-width:1.0;" width="10" x="426" y="142.1094"/><rect fill="#FFFFFF" height="29.3105" style="stroke:#181818;stroke-width:1.0;" width="10" x="670" y="171.4199"/><rect fill="#FFFFFF" height="155.5527" style="stroke:#181818;stroke-width:1.0;" width="10" x="908.5" y="506.0137"/><rect fill="#FFFFFF" height="126.2422" style="stroke:#181818;stroke-width:1.0;" width="10" x="913.5" y="535.3242"/><rect fill="#FFFFFF" height="96.9316" style="stroke:#181818;stroke-width:1.0;" width="10" x="918.5" y="564.6348"/><rect fill="#FFFFFF" height="67.6211" style="stroke:#181818;stroke-width:1.0;" width="10" x="923.5" y="593.9453"/><rect fill="#FFFFFF" height="29.3105" style="stroke:#181818;stroke-width:1.0;" width="10" x="1089.5" y="230.041"/><rect fill="#FFFFFF" height="29.3105" style="stroke:#181818;stroke-width:1.0;" width="10" x="1089.5" y="288.6621"/><rect fill="#FFFFFF" height="29.3105" style="stroke:#181818;stroke-width:1.0;" width="10" x="1089.5" y="347.2832"/><rect fill="#FFFFFF" height="29.3105" style="stroke:#181818;stroke-width:1.0;" width="10" x="1089.5" y="405.9043"/><polygon fill="#181818" points="182,108.7988,192,112.7988,182,116.7988,186,112.7988" style="stroke:#181818;stroke-width:1.0;"/><line style="stroke:#181818;stroke-width:1.0;" x1="33" x2="188" y1="112.7988" y2="112.7988"/><text fill="#000000" font-family="sans-serif" font-size="13" font-weight="bold" lengthAdjust="spacing" textLength="9" x="40" y="108.0566">1</text><text fill="#000000" font-family="sans-serif" font-size="13" lengthAdjust="spacing" textLength="129" x="53" y="108.0566">GET /products/{sku}</text><polygon fill="#181818" points="414,138.1094,424,142.1094,414,146.1094,418,142.1094" style="stroke:#181818;stroke-width:1.0;"/><line style="stroke:#181818;stroke-width:1.0;" x1="204" x2="420" y1="142.1094" y2="142.1094"/><text fill="#000000" font-family="sans-serif" font-size="13" font-weight="bold" lengthAdjust="spacing" textLength="9" x="211" y="137.3672">2</text><text fill="#000000" font-family="sans-serif" font-size="13" lengthAdjust="spacing" textLength="190" x="224" y="137.3672">productService.findBySku(sku)</text><polygon fill="#181818" points="658,167.4199,668,171.4199,658,175.4199,662,171.4199" style="stroke:#181818;stroke-width:1.0;"/><line style="stroke:#181818;stroke-width:1.0;" x1="436" x2="664" y1="171.4199" y2="171.4199"/><text fill="#000000" font-family="sans-serif" font-size="13" font-weight="bold" lengthAdjust="spacing" textLength="9" x="443" y="166.6777">3</text><text fill="#000000" font-family="sans-serif" font-size="13" lengthAdjust="spacing" textLength="177" x="456" y="166.6777">productRepo.findBySuk(sku)</text><polygon fill="#181818" points="447,196.7305,437,200.7305,447,204.7305,443,200.7305" style="stroke:#181818;stroke-width:1.0;"/><line style="stroke:#181818;stroke-width:1.0;stroke-dasharray:2.0,2.0;" x1="441" x2="674" y1="200.7305" y2="200.7305"/><text fill="#000000" font-family="sans-serif" font-size="13" font-weight="bold" lengthAdjust="spacing" textLength="9" x="453" y="195.9883">4</text><text fill="#000000" font-family="sans-serif" font-size="13" lengthAdjust="spacing" textLength="49" x="466" y="195.9883">product</text><polygon fill="#181818" points="1077.5,226.041,1087.5,230.041,1077.5,234.041,1081.5,230.041" style="stroke:#181818;stroke-width:1.0;"/><line style="stroke:#181818;stroke-width:1.0;" x1="436" x2="1083.5" y1="230.041" y2="230.041"/><text fill="#000000" font-family="sans-serif" font-size="13" font-weight="bold" lengthAdjust="spacing" textLength="9" x="443" y="225.2988">5</text><text fill="#000000" font-family="sans-serif" font-size="13" lengthAdjust="spacing" textLength="51" x="456" y="225.2988">getSku()</text><polygon fill="#181818" points="447,255.3516,437,259.3516,447,263.3516,443,259.3516" style="stroke:#181818;stroke-width:1.0;"/><line style="stroke:#181818;stroke-width:1.0;stroke-dasharray:2.0,2.0;" x1="441" x2="1093.5" y1="259.3516" y2="259.3516"/><text fill="#000000" font-family="sans-serif" font-size="13" font-weight="bold" lengthAdjust="spacing" textLength="9" x="453" y="254.6094">6</text><text fill="#000000" font-family="sans-serif" font-size="13" lengthAdjust="spacing" textLength="23" x="466" y="254.6094">sku</text><polygon fill="#181818" points="1077.5,284.6621,1087.5,288.6621,1077.5,292.6621,1081.5,288.6621" style="stroke:#181818;stroke-width:1.0;"/><line style="stroke:#181818;stroke-width:1.0;" x1="436" x2="1083.5" y1="288.6621" y2="288.6621"/><text fill="#000000" font-family="sans-serif" font-size="13" font-weight="bold" lengthAdjust="spacing" textLength="9" x="443" y="283.9199">7</text><text fill="#000000" font-family="sans-serif" font-size="13" lengthAdjust="spacing" textLength="64" x="456" y="283.9199">getName()</text><polygon fill="#181818" points="447,313.9727,437,317.9727,447,321.9727,443,317.9727" style="stroke:#181818;stroke-width:1.0;"/><line style="stroke:#181818;stroke-width:1.0;stroke-dasharray:2.0,2.0;" x1="441" x2="1093.5" y1="317.9727" y2="317.9727"/><text fill="#000000" font-family="sans-serif" font-size="13" font-weight="bold" lengthAdjust="spacing" textLength="9" x="453" y="313.2305">8</text><text fill="#000000" font-family="sans-serif" font-size="13" lengthAdjust="spacing" textLength="34" x="466" y="313.2305">name</text><polygon fill="#181818" points="1077.5,343.2832,1087.5,347.2832,1077.5,351.2832,1081.5,347.2832" style="stroke:#181818;stroke-width:1.0;"/><line style="stroke:#181818;stroke-width:1.0;" x1="436" x2="1083.5" y1="347.2832" y2="347.2832"/><text fill="#000000" font-family="sans-serif" font-size="13" font-weight="bold" lengthAdjust="spacing" textLength="9" x="443" y="342.541">9</text><text fill="#000000" font-family="sans-serif" font-size="13" lengthAdjust="spacing" textLength="101" x="456" y="342.541">getDescription()</text><polygon fill="#181818" points="447,372.5938,437,376.5938,447,380.5938,443,376.5938" style="stroke:#181818;stroke-width:1.0;"/><line style="stroke:#181818;stroke-width:1.0;stroke-dasharray:2.0,2.0;" x1="441" x2="1093.5" y1="376.5938" y2="376.5938"/><text fill="#000000" font-family="sans-serif" font-size="13" font-weight="bold" lengthAdjust="spacing" textLength="18" x="453" y="371.8516">10</text><text fill="#000000" font-family="sans-serif" font-size="13" lengthAdjust="spacing" textLength="71" x="475" y="371.8516">description</text><polygon fill="#181818" points="1077.5,401.9043,1087.5,405.9043,1077.5,409.9043,1081.5,405.9043" style="stroke:#181818;stroke-width:1.0;"/><line style="stroke:#181818;stroke-width:1.0;" x1="436" x2="1083.5" y1="405.9043" y2="405.9043"/><text fill="#000000" font-family="sans-serif" font-size="13" font-weight="bold" lengthAdjust="spacing" textLength="18" x="443" y="401.1621">11</text><text fill="#000000" font-family="sans-serif" font-size="13" lengthAdjust="spacing" textLength="73" x="465" y="401.1621">getImages()</text><polygon fill="#181818" points="447,431.2148,437,435.2148,447,439.2148,443,435.2148" style="stroke:#181818;stroke-width:1.0;"/><line style="stroke:#181818;stroke-width:1.0;stroke-dasharray:2.0,2.0;" x1="441" x2="1093.5" y1="435.2148" y2="435.2148"/><text fill="#000000" font-family="sans-serif" font-size="13" font-weight="bold" lengthAdjust="spacing" textLength="18" x="453" y="430.4727">12</text><text fill="#000000" font-family="sans-serif" font-size="13" lengthAdjust="spacing" textLength="45" x="475" y="430.4727">images</text><polygon fill="#181818" points="793,460.5254,803,464.5254,793,468.5254,797,464.5254" style="stroke:#181818;stroke-width:1.0;"/><line style="stroke:#181818;stroke-width:1.0;" x1="436" x2="799" y1="464.5254" y2="464.5254"/><text fill="#000000" font-family="sans-serif" font-size="13" font-weight="bold" lengthAdjust="spacing" textLength="18" x="443" y="459.7832">13</text><text fill="#000000" font-family="sans-serif" font-size="13" lengthAdjust="spacing" textLength="33" x="465" y="459.7832">new()</text><rect fill="#E2E2F0" height="30.4883" rx="2.5" ry="2.5" style="stroke:#181818;stroke-width:0.5;" width="217" x="805" y="443.2148"/><text fill="#000000" font-family="sans-serif" font-size="14" lengthAdjust="spacing" textLength="203" x="812" y="463.75">productDetails:ProductDetails</text><polygon fill="#181818" points="896.5,502.0137,906.5,506.0137,896.5,510.0137,900.5,506.0137" style="stroke:#181818;stroke-width:1.0;"/><line style="stroke:#181818;stroke-width:1.0;" x1="436" x2="902.5" y1="506.0137" y2="506.0137"/><text fill="#000000" font-family="sans-serif" font-size="13" font-weight="bold" lengthAdjust="spacing" textLength="18" x="443" y="501.2715">14</text><text fill="#000000" font-family="sans-serif" font-size="13" lengthAdjust="spacing" textLength="73" x="465" y="501.2715">setSku(sku)</text><polygon fill="#181818" points="901.5,531.3242,911.5,535.3242,901.5,539.3242,905.5,535.3242" style="stroke:#181818;stroke-width:1.0;"/><line style="stroke:#181818;stroke-width:1.0;" x1="436" x2="907.5" y1="535.3242" y2="535.3242"/><text fill="#000000" font-family="sans-serif" font-size="13" font-weight="bold" lengthAdjust="spacing" textLength="18" x="443" y="530.582">15</text><text fill="#000000" font-family="sans-serif" font-size="13" lengthAdjust="spacing" textLength="97" x="465" y="530.582">setName(name)</text><polygon fill="#181818" points="906.5,560.6348,916.5,564.6348,906.5,568.6348,910.5,564.6348" style="stroke:#181818;stroke-width:1.0;"/><line style="stroke:#181818;stroke-width:1.0;" x1="436" x2="912.5" y1="564.6348" y2="564.6348"/><text fill="#000000" font-family="sans-serif" font-size="13" font-weight="bold" lengthAdjust="spacing" textLength="18" x="443" y="559.8926">16</text><text fill="#000000" font-family="sans-serif" font-size="13" lengthAdjust="spacing" textLength="171" x="465" y="559.8926">setDescription(description)</text><polygon fill="#181818" points="911.5,589.9453,921.5,593.9453,911.5,597.9453,915.5,593.9453" style="stroke:#181818;stroke-width:1.0;"/><line style="stroke:#181818;stroke-width:1.0;" x1="436" x2="917.5" y1="593.9453" y2="593.9453"/><text fill="#000000" font-family="sans-serif" font-size="13" font-weight="bold" lengthAdjust="spacing" textLength="18" x="443" y="589.2031">17</text><text fill="#000000" font-family="sans-serif" font-size="13" lengthAdjust="spacing" textLength="117" x="465" y="589.2031">setImages(images)</text><polygon fill="#181818" points="215,619.2559,205,623.2559,215,627.2559,211,623.2559" style="stroke:#181818;stroke-width:1.0;"/><line style="stroke:#181818;stroke-width:1.0;stroke-dasharray:2.0,2.0;" x1="209" x2="430" y1="623.2559" y2="623.2559"/><text fill="#000000" font-family="sans-serif" font-size="13" font-weight="bold" lengthAdjust="spacing" textLength="18" x="221" y="618.5137">18</text><text fill="#000000" font-family="sans-serif" font-size="13" lengthAdjust="spacing" textLength="93" x="243" y="618.5137">productDetails</text><polygon fill="#181818" points="44,648.5664,34,652.5664,44,656.5664,40,652.5664" style="stroke:#181818;stroke-width:1.0;"/><line style="stroke:#181818;stroke-width:1.0;stroke-dasharray:2.0,2.0;" x1="38" x2="198" y1="652.5664" y2="652.5664"/><text fill="#000000" font-family="sans-serif" font-size="13" font-weight="bold" lengthAdjust="spacing" textLength="18" x="50" y="647.8242">19</text><text fill="#000000" font-family="sans-serif" font-size="13" lengthAdjust="spacing" textLength="93" x="72" y="647.8242">productDetails</text><!--MD5=[737ff3fb460bdd97112d59d464529366]
@startuml
'https://plantuml.com/sequence-diagram


autoactivate on
autonumber

actor "Client" as client
participant "ProductsController" as controller
participant "productService:ProductsService" as service
participant "productRepo:ProductsRepository" as repository
participant "productDetails:ProductDetails" as details
participant "product:Product" as product

activate client

client -> controller: GET /products/{sku}
controller -> service : productService.findBySku(sku)
service -> repository: productRepo.findBySuk(sku)
repository - -> service: product
service -> product: getSku()
product - -> service: sku
service -> product: getName()
product - -> service: name
service -> product: getDescription()
product - -> service: description
service -> product: getImages()
product - -> service: images
service -> details**: new()
service -> details: setSku(sku)
service -> details: setName(name)
service -> details: setDescription(description)
service -> details: setImages(images)
service - -> controller: productDetails
controller - -> client: productDetails


@enduml

@startuml


autoactivate on
autonumber

actor "Client" as client
participant "ProductsController" as controller
participant "productService:ProductsService" as service
participant "productRepo:ProductsRepository" as repository
participant "productDetails:ProductDetails" as details
participant "product:Product" as product

activate client

client -> controller: GET /products/{sku}
controller -> service : productService.findBySku(sku)
service -> repository: productRepo.findBySuk(sku)
repository - -> service: product
service -> product: getSku()
product - -> service: sku
service -> product: getName()
product - -> service: name
service -> product: getDescription()
product - -> service: description
service -> product: getImages()
product - -> service: images
service -> details**: new()
service -> details: setSku(sku)
service -> details: setName(name)
service -> details: setDescription(description)
service -> details: setImages(images)
service - -> controller: productDetails
controller - -> client: productDetails


@enduml

PlantUML version 1.2022.4(Sat Apr 09 14:29:17 WEST 2022)
(GPL source distribution)
Java Runtime: OpenJDK Runtime Environment
JVM: OpenJDK 64-Bit Server VM
Default Encoding: UTF-8
Language: pt
Country: PT
--></g></svg>