<?xml version="1.0" encoding="UTF-8" standalone="no"?><svg xmlns="http://www.w3.org/2000/svg" xmlns:xlink="http://www.w3.org/1999/xlink" contentStyleType="text/css" height="720px" preserveAspectRatio="none" style="width:1291px;height:720px;background:#FFFFFF;" version="1.1" viewBox="0 0 1291 720" width="1291px" zoomAndPan="magnify"><defs/><g><rect fill="#FFFFFF" height="539.457" style="stroke:#181818;stroke-width:1.0;" width="10" x="23" y="91.4883"/><rect fill="#FFFFFF" height="509.1465" style="stroke:#181818;stroke-width:1.0;" width="10" x="210" y="112.7988"/><rect fill="#FFFFFF" height="450.5254" style="stroke:#181818;stroke-width:1.0;" width="10" x="447" y="142.1094"/><rect fill="#FFFFFF" height="459.5254" style="stroke:#181818;stroke-width:1.0;" width="10" x="691" y="171.4199"/><rect fill="#FFFFFF" height="422.2148" style="stroke:#181818;stroke-width:1.0;" width="10" x="696" y="208.7305"/><rect fill="#FFFFFF" height="312.2832" style="stroke:#181818;stroke-width:1.0;" width="10" x="701" y="251.041"/><rect fill="#FFFFFF" height="162.5527" style="stroke:#181818;stroke-width:1.0;" width="10" x="1020" y="468.3926"/><rect fill="#FFFFFF" height="29.3105" style="stroke:#181818;stroke-width:1.0;" width="10" x="1025" y="497.7031"/><rect fill="#FFFFFF" height="29.3105" style="stroke:#181818;stroke-width:1.0;" width="10" x="1208" y="309.6621"/><rect fill="#FFFFFF" height="29.3105" style="stroke:#181818;stroke-width:1.0;" width="10" x="1208" y="368.2832"/><rect height="263.9727" style="stroke:#000000;stroke-width:1.5;fill:none;" width="719.5" x="566" y="271.041"/><line style="stroke:#181818;stroke-width:0.5;fill:none;stroke-dasharray:5.0,5.0;" x1="28" x2="28" y1="81.4883" y2="639.9453"/><line style="stroke:#181818;stroke-width:0.5;fill:none;stroke-dasharray:5.0,5.0;" x1="215" x2="215" y1="81.4883" y2="639.9453"/><line style="stroke:#181818;stroke-width:0.5;fill:none;stroke-dasharray:5.0,5.0;" x1="452" x2="452" y1="81.4883" y2="639.9453"/><line style="stroke:#181818;stroke-width:0.5;fill:none;stroke-dasharray:5.0,5.0;" x1="696" x2="696" y1="81.4883" y2="639.9453"/><line style="stroke:#181818;stroke-width:0.5;fill:none;stroke-dasharray:5.0,5.0;" x1="1024.5" x2="1024.5" y1="436.3379" y2="639.9453"/><line style="stroke:#181818;stroke-width:0.5;fill:none;stroke-dasharray:5.0,5.0;" x1="1212.5" x2="1212.5" y1="81.4883" y2="639.9453"/><text fill="#000000" font-family="sans-serif" font-size="14" lengthAdjust="spacing" textLength="40" x="5" y="78.5352">Client</text><ellipse cx="28" cy="13.5" fill="#E2E2F0" rx="8" ry="8" style="stroke:#181818;stroke-width:0.5;"/><path d="M28,21.5 L28,48.5 M15,29.5 L41,29.5 M28,48.5 L15,63.5 M28,48.5 L41,63.5 " fill="none" style="stroke:#181818;stroke-width:0.5;"/><text fill="#000000" font-family="sans-serif" font-size="14" lengthAdjust="spacing" textLength="40" x="5" y="652.4805">Client</text><ellipse cx="28" cy="663.9336" fill="#E2E2F0" rx="8" ry="8" style="stroke:#181818;stroke-width:0.5;"/><path d="M28,671.9336 L28,698.9336 M15,679.9336 L41,679.9336 M28,698.9336 L15,713.9336 M28,698.9336 L41,713.9336 " fill="none" style="stroke:#181818;stroke-width:0.5;"/><rect fill="#E2E2F0" height="30.4883" rx="2.5" ry="2.5" style="stroke:#181818;stroke-width:0.5;" width="144" x="143" y="50"/><text fill="#000000" font-family="sans-serif" font-size="14" lengthAdjust="spacing" textLength="130" x="150" y="70.5352">ProductsController</text><rect fill="#E2E2F0" height="30.4883" rx="2.5" ry="2.5" style="stroke:#181818;stroke-width:0.5;" width="144" x="143" y="638.9453"/><text fill="#000000" font-family="sans-serif" font-size="14" lengthAdjust="spacing" textLength="130" x="150" y="659.4805">ProductsController</text><rect fill="#E2E2F0" height="30.4883" rx="2.5" ry="2.5" style="stroke:#181818;stroke-width:0.5;" width="228" x="338" y="50"/><text fill="#000000" font-family="sans-serif" font-size="14" lengthAdjust="spacing" textLength="214" x="345" y="70.5352">productService:ProductsService</text><rect fill="#E2E2F0" height="30.4883" rx="2.5" ry="2.5" style="stroke:#181818;stroke-width:0.5;" width="228" x="338" y="638.9453"/><text fill="#000000" font-family="sans-serif" font-size="14" lengthAdjust="spacing" textLength="214" x="345" y="659.4805">productService:ProductsService</text><rect fill="#E2E2F0" height="30.4883" rx="2.5" ry="2.5" style="stroke:#181818;stroke-width:0.5;" width="240" x="576" y="50"/><text fill="#000000" font-family="sans-serif" font-size="14" lengthAdjust="spacing" textLength="226" x="583" y="70.5352">productRepo:ProductsRepository</text><rect fill="#E2E2F0" height="30.4883" rx="2.5" ry="2.5" style="stroke:#181818;stroke-width:0.5;" width="240" x="576" y="638.9453"/><text fill="#000000" font-family="sans-serif" font-size="14" lengthAdjust="spacing" textLength="226" x="583" y="659.4805">productRepo:ProductsRepository</text><rect fill="#E2E2F0" height="30.4883" rx="2.5" ry="2.5" style="stroke:#181818;stroke-width:0.5;" width="231" x="909.5" y="638.9453"/><text fill="#000000" font-family="sans-serif" font-size="14" lengthAdjust="spacing" textLength="217" x="916.5" y="659.4805">productCatalog:ProductCatalog</text><rect fill="#E2E2F0" height="30.4883" rx="2.5" ry="2.5" style="stroke:#181818;stroke-width:0.5;" width="125" x="1150.5" y="50"/><text fill="#000000" font-family="sans-serif" font-size="14" lengthAdjust="spacing" textLength="111" x="1157.5" y="70.5352">product:Product</text><rect fill="#E2E2F0" height="30.4883" rx="2.5" ry="2.5" style="stroke:#181818;stroke-width:0.5;" width="125" x="1150.5" y="638.9453"/><text fill="#000000" font-family="sans-serif" font-size="14" lengthAdjust="spacing" textLength="111" x="1157.5" y="659.4805">product:Product</text><rect fill="#FFFFFF" height="539.457" style="stroke:#181818;stroke-width:1.0;" width="10" x="23" y="91.4883"/><rect fill="#FFFFFF" height="509.1465" style="stroke:#181818;stroke-width:1.0;" width="10" x="210" y="112.7988"/><rect fill="#FFFFFF" height="450.5254" style="stroke:#181818;stroke-width:1.0;" width="10" x="447" y="142.1094"/><rect fill="#FFFFFF" height="459.5254" style="stroke:#181818;stroke-width:1.0;" width="10" x="691" y="171.4199"/><rect fill="#FFFFFF" height="422.2148" style="stroke:#181818;stroke-width:1.0;" width="10" x="696" y="208.7305"/><rect fill="#FFFFFF" height="312.2832" style="stroke:#181818;stroke-width:1.0;" width="10" x="701" y="251.041"/><rect fill="#FFFFFF" height="162.5527" style="stroke:#181818;stroke-width:1.0;" width="10" x="1020" y="468.3926"/><rect fill="#FFFFFF" height="29.3105" style="stroke:#181818;stroke-width:1.0;" width="10" x="1025" y="497.7031"/><rect fill="#FFFFFF" height="29.3105" style="stroke:#181818;stroke-width:1.0;" width="10" x="1208" y="309.6621"/><rect fill="#FFFFFF" height="29.3105" style="stroke:#181818;stroke-width:1.0;" width="10" x="1208" y="368.2832"/><polygon fill="#181818" points="198,108.7988,208,112.7988,198,116.7988,202,112.7988" style="stroke:#181818;stroke-width:1.0;"/><line style="stroke:#181818;stroke-width:1.0;" x1="33" x2="204" y1="112.7988" y2="112.7988"/><text fill="#000000" font-family="sans-serif" font-size="13" font-weight="bold" lengthAdjust="spacing" textLength="9" x="40" y="108.0566">1</text><text fill="#000000" font-family="sans-serif" font-size="13" lengthAdjust="spacing" textLength="91" x="53" y="108.0566">GET /products</text><polygon fill="#181818" points="435,138.1094,445,142.1094,435,146.1094,439,142.1094" style="stroke:#181818;stroke-width:1.0;"/><line style="stroke:#181818;stroke-width:1.0;" x1="220" x2="441" y1="142.1094" y2="142.1094"/><text fill="#000000" font-family="sans-serif" font-size="13" font-weight="bold" lengthAdjust="spacing" textLength="9" x="227" y="137.3672">2</text><text fill="#000000" font-family="sans-serif" font-size="13" lengthAdjust="spacing" textLength="195" x="240" y="137.3672">productService.findAllCatalog()</text><polygon fill="#181818" points="679,167.4199,689,171.4199,679,175.4199,683,171.4199" style="stroke:#181818;stroke-width:1.0;"/><line style="stroke:#181818;stroke-width:1.0;" x1="457" x2="685" y1="171.4199" y2="171.4199"/><text fill="#000000" font-family="sans-serif" font-size="13" font-weight="bold" lengthAdjust="spacing" textLength="9" x="464" y="166.6777">3</text><text fill="#000000" font-family="sans-serif" font-size="13" lengthAdjust="spacing" textLength="182" x="477" y="166.6777">productRepo.findAllCatalog()</text><line style="stroke:#181818;stroke-width:1.0;" x1="701" x2="748" y1="195.7305" y2="195.7305"/><line style="stroke:#181818;stroke-width:1.0;" x1="748" x2="748" y1="195.7305" y2="208.7305"/><line style="stroke:#181818;stroke-width:1.0;" x1="707" x2="748" y1="208.7305" y2="208.7305"/><polygon fill="#181818" points="717,204.7305,707,208.7305,717,212.7305,713,208.7305" style="stroke:#181818;stroke-width:1.0;"/><text fill="#000000" font-family="sans-serif" font-size="13" font-weight="bold" lengthAdjust="spacing" textLength="9" x="713" y="190.9883">4</text><text fill="#000000" font-family="sans-serif" font-size="13" lengthAdjust="spacing" textLength="45" x="726" y="190.9883">getAll()</text><line style="stroke:#181818;stroke-width:1.0;" x1="706" x2="753" y1="238.041" y2="238.041"/><line style="stroke:#181818;stroke-width:1.0;" x1="753" x2="753" y1="238.041" y2="251.041"/><line style="stroke:#181818;stroke-width:1.0;" x1="712" x2="753" y1="251.041" y2="251.041"/><polygon fill="#181818" points="722,247.041,712,251.041,722,255.041,718,251.041" style="stroke:#181818;stroke-width:1.0;"/><text fill="#000000" font-family="sans-serif" font-size="13" font-weight="bold" lengthAdjust="spacing" textLength="9" x="718" y="233.2988">5</text><text fill="#000000" font-family="sans-serif" font-size="13" lengthAdjust="spacing" textLength="20" x="731" y="233.2988">list</text><path d="M566,271.041 L640,271.041 L640,278.3516 L630,288.3516 L566,288.3516 L566,271.041 " fill="#EEEEEE" style="stroke:#000000;stroke-width:1.5;"/><rect fill="none" height="263.9727" style="stroke:#000000;stroke-width:1.5;" width="719.5" x="566" y="271.041"/><text fill="#000000" font-family="sans-serif" font-size="13" font-weight="bold" lengthAdjust="spacing" textLength="29" x="581" y="284.6094">loop</text><text fill="#000000" font-family="sans-serif" font-size="11" font-weight="bold" lengthAdjust="spacing" textLength="150" x="655" y="283.6758">[for each 'product' in 'list']</text><polygon fill="#181818" points="1196,305.6621,1206,309.6621,1196,313.6621,1200,309.6621" style="stroke:#181818;stroke-width:1.0;"/><line style="stroke:#181818;stroke-width:1.0;" x1="711" x2="1202" y1="309.6621" y2="309.6621"/><text fill="#000000" font-family="sans-serif" font-size="13" font-weight="bold" lengthAdjust="spacing" textLength="9" x="718" y="304.9199">6</text><text fill="#000000" font-family="sans-serif" font-size="13" lengthAdjust="spacing" textLength="51" x="731" y="304.9199">getSku()</text><polygon fill="#181818" points="722,334.9727,712,338.9727,722,342.9727,718,338.9727" style="stroke:#181818;stroke-width:1.0;"/><line style="stroke:#181818;stroke-width:1.0;stroke-dasharray:2.0,2.0;" x1="716" x2="1212" y1="338.9727" y2="338.9727"/><text fill="#000000" font-family="sans-serif" font-size="13" font-weight="bold" lengthAdjust="spacing" textLength="9" x="728" y="334.2305">7</text><text fill="#000000" font-family="sans-serif" font-size="13" lengthAdjust="spacing" textLength="23" x="741" y="334.2305">sku</text><polygon fill="#181818" points="1196,364.2832,1206,368.2832,1196,372.2832,1200,368.2832" style="stroke:#181818;stroke-width:1.0;"/><line style="stroke:#181818;stroke-width:1.0;" x1="711" x2="1202" y1="368.2832" y2="368.2832"/><text fill="#000000" font-family="sans-serif" font-size="13" font-weight="bold" lengthAdjust="spacing" textLength="9" x="718" y="363.541">8</text><text fill="#000000" font-family="sans-serif" font-size="13" lengthAdjust="spacing" textLength="64" x="731" y="363.541">getName()</text><polygon fill="#181818" points="722,393.5938,712,397.5938,722,401.5938,718,397.5938" style="stroke:#181818;stroke-width:1.0;"/><line style="stroke:#181818;stroke-width:1.0;stroke-dasharray:2.0,2.0;" x1="716" x2="1212" y1="397.5938" y2="397.5938"/><text fill="#000000" font-family="sans-serif" font-size="13" font-weight="bold" lengthAdjust="spacing" textLength="9" x="728" y="392.8516">9</text><text fill="#000000" font-family="sans-serif" font-size="13" lengthAdjust="spacing" textLength="34" x="741" y="392.8516">name</text><polygon fill="#181818" points="897.5,422.9043,907.5,426.9043,897.5,430.9043,901.5,426.9043" style="stroke:#181818;stroke-width:1.0;"/><line style="stroke:#181818;stroke-width:1.0;" x1="711" x2="903.5" y1="426.9043" y2="426.9043"/><text fill="#000000" font-family="sans-serif" font-size="13" font-weight="bold" lengthAdjust="spacing" textLength="18" x="718" y="422.1621">10</text><text fill="#000000" font-family="sans-serif" font-size="13" lengthAdjust="spacing" textLength="33" x="740" y="422.1621">new()</text><rect fill="#E2E2F0" height="30.4883" rx="2.5" ry="2.5" style="stroke:#181818;stroke-width:0.5;" width="231" x="909.5" y="405.5938"/><text fill="#000000" font-family="sans-serif" font-size="14" lengthAdjust="spacing" textLength="217" x="916.5" y="426.1289">productCatalog:ProductCatalog</text><polygon fill="#181818" points="1008,464.3926,1018,468.3926,1008,472.3926,1012,468.3926" style="stroke:#181818;stroke-width:1.0;"/><line style="stroke:#181818;stroke-width:1.0;" x1="711" x2="1014" y1="468.3926" y2="468.3926"/><text fill="#000000" font-family="sans-serif" font-size="13" font-weight="bold" lengthAdjust="spacing" textLength="18" x="718" y="463.6504">11</text><text fill="#000000" font-family="sans-serif" font-size="13" lengthAdjust="spacing" textLength="174" x="740" y="463.6504">productCatalog.setSku(sku)</text><polygon fill="#181818" points="1013,493.7031,1023,497.7031,1013,501.7031,1017,497.7031" style="stroke:#181818;stroke-width:1.0;"/><line style="stroke:#181818;stroke-width:1.0;" x1="711" x2="1019" y1="497.7031" y2="497.7031"/><text fill="#000000" font-family="sans-serif" font-size="13" font-weight="bold" lengthAdjust="spacing" textLength="18" x="718" y="492.9609">12</text><text fill="#000000" font-family="sans-serif" font-size="13" lengthAdjust="spacing" textLength="198" x="740" y="492.9609">productCatalog.setName(name)</text><polygon fill="#181818" points="722,523.0137,712,527.0137,722,531.0137,718,527.0137" style="stroke:#181818;stroke-width:1.0;"/><line style="stroke:#181818;stroke-width:1.0;stroke-dasharray:2.0,2.0;" x1="716" x2="1019" y1="527.0137" y2="527.0137"/><text fill="#000000" font-family="sans-serif" font-size="13" font-weight="bold" lengthAdjust="spacing" textLength="18" x="728" y="522.2715">13</text><text fill="#000000" font-family="sans-serif" font-size="13" lengthAdjust="spacing" textLength="263" x="750" y="522.2715">listOfProductCatalog.add(productCatalog)</text><polygon fill="#181818" points="468,559.3242,458,563.3242,468,567.3242,464,563.3242" style="stroke:#181818;stroke-width:1.0;"/><line style="stroke:#181818;stroke-width:1.0;stroke-dasharray:2.0,2.0;" x1="462" x2="695" y1="563.3242" y2="563.3242"/><text fill="#000000" font-family="sans-serif" font-size="13" font-weight="bold" lengthAdjust="spacing" textLength="18" x="474" y="558.582">14</text><text fill="#000000" font-family="sans-serif" font-size="13" lengthAdjust="spacing" textLength="131" x="496" y="558.582">listOfProductCatalog</text><polygon fill="#181818" points="231,588.6348,221,592.6348,231,596.6348,227,592.6348" style="stroke:#181818;stroke-width:1.0;"/><line style="stroke:#181818;stroke-width:1.0;stroke-dasharray:2.0,2.0;" x1="225" x2="451" y1="592.6348" y2="592.6348"/><text fill="#000000" font-family="sans-serif" font-size="13" font-weight="bold" lengthAdjust="spacing" textLength="18" x="237" y="587.8926">15</text><text fill="#000000" font-family="sans-serif" font-size="13" lengthAdjust="spacing" textLength="131" x="259" y="587.8926">listOfProductCatalog</text><polygon fill="#181818" points="44,617.9453,34,621.9453,44,625.9453,40,621.9453" style="stroke:#181818;stroke-width:1.0;"/><line style="stroke:#181818;stroke-width:1.0;stroke-dasharray:2.0,2.0;" x1="38" x2="214" y1="621.9453" y2="621.9453"/><text fill="#000000" font-family="sans-serif" font-size="13" font-weight="bold" lengthAdjust="spacing" textLength="18" x="50" y="617.2031">16</text><text fill="#000000" font-family="sans-serif" font-size="13" lengthAdjust="spacing" textLength="131" x="72" y="617.2031">listOfProductCatalog</text><!--MD5=[e615b525507233391caf8d0d8e220279]
@startuml
'https://plantuml.com/sequence-diagram


autoactivate on
autonumber

actor "Client" as client
participant "ProductsController" as controller
participant "productService:ProductsService" as service
participant "productRepo:ProductsRepository" as repository
participant "productCatalog:ProductCatalog" as details
participant "product:Product" as product

activate client

client -> controller : GET /products
controller -> service : productService.findAllCatalog()
service -> repository: productRepo.findAllCatalog()
repository -> repository: getAll()
repository -> repository: list
loop for each 'product' in 'list'
    repository -> product: getSku()
    product - -> repository: sku
    repository -> product: getName()
    product - -> repository: name
    repository -> details**: new()
    repository -> details:productCatalog.setSku(sku)
    repository -> details:productCatalog.setName(name)
    details - -> repository: listOfProductCatalog.add(productCatalog)
end loop
repository - -> service: listOfProductCatalog
service - -> controller: listOfProductCatalog
controller - -> client: listOfProductCatalog

@enduml

@startuml


autoactivate on
autonumber

actor "Client" as client
participant "ProductsController" as controller
participant "productService:ProductsService" as service
participant "productRepo:ProductsRepository" as repository
participant "productCatalog:ProductCatalog" as details
participant "product:Product" as product

activate client

client -> controller : GET /products
controller -> service : productService.findAllCatalog()
service -> repository: productRepo.findAllCatalog()
repository -> repository: getAll()
repository -> repository: list
loop for each 'product' in 'list'
    repository -> product: getSku()
    product - -> repository: sku
    repository -> product: getName()
    product - -> repository: name
    repository -> details**: new()
    repository -> details:productCatalog.setSku(sku)
    repository -> details:productCatalog.setName(name)
    details - -> repository: listOfProductCatalog.add(productCatalog)
end loop
repository - -> service: listOfProductCatalog
service - -> controller: listOfProductCatalog
controller - -> client: listOfProductCatalog

@enduml

PlantUML version 1.2022.4(Sat Apr 09 14:29:17 WEST 2022)
(GPL source distribution)
Java Runtime: OpenJDK Runtime Environment
JVM: OpenJDK 64-Bit Server VM
Default Encoding: UTF-8
Language: pt
Country: PT
--></g></svg>