<?xml version="1.0" encoding="UTF-8" standalone="no"?><svg xmlns="http://www.w3.org/2000/svg" xmlns:xlink="http://www.w3.org/1999/xlink" contentStyleType="text/css" height="459px" preserveAspectRatio="none" style="width:1075px;height:459px;background:#FFFFFF;" version="1.1" viewBox="0 0 1075 459" width="1075px" zoomAndPan="magnify"><defs/><g><rect fill="#FFFFFF" height="277.7949" style="stroke:#181818;stroke-width:1.0;" width="10" x="23" y="91.4883"/><rect fill="#FFFFFF" height="247.4844" style="stroke:#181818;stroke-width:1.0;" width="10" x="201" y="112.7988"/><rect fill="#FFFFFF" height="227.1738" style="stroke:#181818;stroke-width:1.0;" width="10" x="454" y="142.1094"/><rect fill="#FFFFFF" height="34.3105" style="stroke:#181818;stroke-width:1.0;" width="10" x="459" y="296.6621"/><rect fill="#FFFFFF" height="29.3105" style="stroke:#181818;stroke-width:1.0;" width="10" x="721" y="171.4199"/><rect fill="#FFFFFF" height="29.3105" style="stroke:#181818;stroke-width:1.0;" width="10" x="956" y="230.041"/><line style="stroke:#181818;stroke-width:0.5;stroke-dasharray:5.0,5.0;" x1="28" x2="28" y1="81.4883" y2="378.2832"/><line style="stroke:#181818;stroke-width:0.5;stroke-dasharray:5.0,5.0;" x1="205.5" x2="205.5" y1="81.4883" y2="378.2832"/><line style="stroke:#181818;stroke-width:0.5;stroke-dasharray:5.0,5.0;" x1="458.5" x2="458.5" y1="81.4883" y2="378.2832"/><line style="stroke:#181818;stroke-width:0.5;stroke-dasharray:5.0,5.0;" x1="725.5" x2="725.5" y1="81.4883" y2="378.2832"/><line style="stroke:#181818;stroke-width:0.5;stroke-dasharray:5.0,5.0;" x1="960.5" x2="960.5" y1="81.4883" y2="378.2832"/><text fill="#000000" font-family="sans-serif" font-size="14" lengthAdjust="spacing" textLength="40" x="5" y="78.5352">Client</text><ellipse cx="28" cy="13.5" fill="#E2E2F0" rx="8" ry="8" style="stroke:#181818;stroke-width:0.5;"/><path d="M28,21.5 L28,48.5 M15,29.5 L41,29.5 M28,48.5 L15,63.5 M28,48.5 L41,63.5 " fill="none" style="stroke:#181818;stroke-width:0.5;"/><text fill="#000000" font-family="sans-serif" font-size="14" lengthAdjust="spacing" textLength="40" x="5" y="390.8184">Client</text><ellipse cx="28" cy="402.2715" fill="#E2E2F0" rx="8" ry="8" style="stroke:#181818;stroke-width:0.5;"/><path d="M28,410.2715 L28,437.2715 M15,418.2715 L41,418.2715 M28,437.2715 L15,452.2715 M28,437.2715 L41,452.2715 " fill="none" style="stroke:#181818;stroke-width:0.5;"/><rect fill="#E2E2F0" height="30.4883" rx="2.5" ry="2.5" style="stroke:#181818;stroke-width:0.5;" width="131" x="140.5" y="50"/><text fill="#000000" font-family="sans-serif" font-size="14" lengthAdjust="spacing" textLength="117" x="147.5" y="70.5352">ReviewController</text><rect fill="#E2E2F0" height="30.4883" rx="2.5" ry="2.5" style="stroke:#181818;stroke-width:0.5;" width="131" x="140.5" y="377.2832"/><text fill="#000000" font-family="sans-serif" font-size="14" lengthAdjust="spacing" textLength="117" x="147.5" y="397.8184">ReviewController</text><rect fill="#E2E2F0" height="30.4883" rx="2.5" ry="2.5" style="stroke:#181818;stroke-width:0.5;" width="205" x="356.5" y="50"/><text fill="#000000" font-family="sans-serif" font-size="14" lengthAdjust="spacing" textLength="191" x="363.5" y="70.5352">reviewService:ReviewService</text><rect fill="#E2E2F0" height="30.4883" rx="2.5" ry="2.5" style="stroke:#181818;stroke-width:0.5;" width="205" x="356.5" y="377.2832"/><text fill="#000000" font-family="sans-serif" font-size="14" lengthAdjust="spacing" textLength="191" x="363.5" y="397.8184">reviewService:ReviewService</text><rect fill="#E2E2F0" height="30.4883" rx="2.5" ry="2.5" style="stroke:#181818;stroke-width:0.5;" width="233" x="609.5" y="50"/><text fill="#000000" font-family="sans-serif" font-size="14" lengthAdjust="spacing" textLength="219" x="616.5" y="70.5352">productRepo:ProductRepository</text><rect fill="#E2E2F0" height="30.4883" rx="2.5" ry="2.5" style="stroke:#181818;stroke-width:0.5;" width="233" x="609.5" y="377.2832"/><text fill="#000000" font-family="sans-serif" font-size="14" lengthAdjust="spacing" textLength="219" x="616.5" y="397.8184">productRepo:ProductRepository</text><rect fill="#E2E2F0" height="30.4883" rx="2.5" ry="2.5" style="stroke:#181818;stroke-width:0.5;" width="217" x="852.5" y="50"/><text fill="#000000" font-family="sans-serif" font-size="14" lengthAdjust="spacing" textLength="203" x="859.5" y="70.5352">reviewRepo:ReviewRepository</text><rect fill="#E2E2F0" height="30.4883" rx="2.5" ry="2.5" style="stroke:#181818;stroke-width:0.5;" width="217" x="852.5" y="377.2832"/><text fill="#000000" font-family="sans-serif" font-size="14" lengthAdjust="spacing" textLength="203" x="859.5" y="397.8184">reviewRepo:ReviewRepository</text><rect fill="#FFFFFF" height="277.7949" style="stroke:#181818;stroke-width:1.0;" width="10" x="23" y="91.4883"/><rect fill="#FFFFFF" height="247.4844" style="stroke:#181818;stroke-width:1.0;" width="10" x="201" y="112.7988"/><rect fill="#FFFFFF" height="227.1738" style="stroke:#181818;stroke-width:1.0;" width="10" x="454" y="142.1094"/><rect fill="#FFFFFF" height="34.3105" style="stroke:#181818;stroke-width:1.0;" width="10" x="459" y="296.6621"/><rect fill="#FFFFFF" height="29.3105" style="stroke:#181818;stroke-width:1.0;" width="10" x="721" y="171.4199"/><rect fill="#FFFFFF" height="29.3105" style="stroke:#181818;stroke-width:1.0;" width="10" x="956" y="230.041"/><polygon fill="#181818" points="189,108.7988,199,112.7988,189,116.7988,193,112.7988" style="stroke:#181818;stroke-width:1.0;"/><line style="stroke:#181818;stroke-width:1.0;" x1="33" x2="195" y1="112.7988" y2="112.7988"/><text fill="#000000" font-family="sans-serif" font-size="13" font-weight="bold" lengthAdjust="spacing" textLength="9" x="40" y="108.0566">1</text><text fill="#000000" font-family="sans-serif" font-size="13" lengthAdjust="spacing" textLength="110" x="53" y="108.0566">GET/reviews{SKU}</text><polygon fill="#181818" points="442,138.1094,452,142.1094,442,146.1094,446,142.1094" style="stroke:#181818;stroke-width:1.0;"/><line style="stroke:#181818;stroke-width:1.0;" x1="211" x2="448" y1="142.1094" y2="142.1094"/><text fill="#000000" font-family="sans-serif" font-size="13" font-weight="bold" lengthAdjust="spacing" textLength="9" x="218" y="137.3672">2</text><text fill="#000000" font-family="sans-serif" font-size="13" lengthAdjust="spacing" textLength="211" x="231" y="137.3672">reviewService.findAllReviews(sku)</text><polygon fill="#181818" points="709,167.4199,719,171.4199,709,175.4199,713,171.4199" style="stroke:#181818;stroke-width:1.0;"/><line style="stroke:#181818;stroke-width:1.0;" x1="464" x2="715" y1="171.4199" y2="171.4199"/><text fill="#000000" font-family="sans-serif" font-size="13" font-weight="bold" lengthAdjust="spacing" textLength="9" x="471" y="166.6777">3</text><text fill="#000000" font-family="sans-serif" font-size="13" lengthAdjust="spacing" textLength="225" x="484" y="166.6777">productRepo.findBySkuProduct(sku)</text><polygon fill="#181818" points="475,196.7305,465,200.7305,475,204.7305,471,200.7305" style="stroke:#181818;stroke-width:1.0;"/><line style="stroke:#181818;stroke-width:1.0;stroke-dasharray:2.0,2.0;" x1="469" x2="725" y1="200.7305" y2="200.7305"/><text fill="#000000" font-family="sans-serif" font-size="13" font-weight="bold" lengthAdjust="spacing" textLength="9" x="481" y="195.9883">4</text><text fill="#000000" font-family="sans-serif" font-size="13" lengthAdjust="spacing" textLength="49" x="494" y="195.9883">product</text><polygon fill="#181818" points="944,226.041,954,230.041,944,234.041,948,230.041" style="stroke:#181818;stroke-width:1.0;"/><line style="stroke:#181818;stroke-width:1.0;" x1="464" x2="950" y1="230.041" y2="230.041"/><text fill="#000000" font-family="sans-serif" font-size="13" font-weight="bold" lengthAdjust="spacing" textLength="9" x="471" y="225.2988">5</text><text fill="#000000" font-family="sans-serif" font-size="13" lengthAdjust="spacing" textLength="148" x="484" y="225.2988">reviewRepo.findAll(sku)</text><polygon fill="#181818" points="475,255.3516,465,259.3516,475,263.3516,471,259.3516" style="stroke:#181818;stroke-width:1.0;"/><line style="stroke:#181818;stroke-width:1.0;stroke-dasharray:2.0,2.0;" x1="469" x2="960" y1="259.3516" y2="259.3516"/><text fill="#000000" font-family="sans-serif" font-size="13" font-weight="bold" lengthAdjust="spacing" textLength="9" x="481" y="254.6094">6</text><text fill="#000000" font-family="sans-serif" font-size="13" lengthAdjust="spacing" textLength="47" x="494" y="254.6094">reviews</text><line style="stroke:#181818;stroke-width:1.0;" x1="464" x2="511" y1="283.6621" y2="283.6621"/><line style="stroke:#181818;stroke-width:1.0;" x1="511" x2="511" y1="283.6621" y2="296.6621"/><line style="stroke:#181818;stroke-width:1.0;" x1="470" x2="511" y1="296.6621" y2="296.6621"/><polygon fill="#181818" points="480,292.6621,470,296.6621,480,300.6621,476,296.6621" style="stroke:#181818;stroke-width:1.0;"/><text fill="#000000" font-family="sans-serif" font-size="13" font-weight="bold" lengthAdjust="spacing" textLength="9" x="476" y="278.9199">7</text><text fill="#000000" font-family="sans-serif" font-size="13" lengthAdjust="spacing" textLength="177" x="489" y="278.9199">product.setReviews(reviews)</text><polygon fill="#181818" points="222,326.9727,212,330.9727,222,334.9727,218,330.9727" style="stroke:#181818;stroke-width:1.0;"/><line style="stroke:#181818;stroke-width:1.0;stroke-dasharray:2.0,2.0;" x1="216" x2="453" y1="330.9727" y2="330.9727"/><text fill="#000000" font-family="sans-serif" font-size="13" font-weight="bold" lengthAdjust="spacing" textLength="9" x="228" y="326.2305">8</text><text fill="#000000" font-family="sans-serif" font-size="13" lengthAdjust="spacing" textLength="131" x="241" y="326.2305">product with reviews</text><polygon fill="#181818" points="44,356.2832,34,360.2832,44,364.2832,40,360.2832" style="stroke:#181818;stroke-width:1.0;"/><line style="stroke:#181818;stroke-width:1.0;stroke-dasharray:2.0,2.0;" x1="38" x2="205" y1="360.2832" y2="360.2832"/><text fill="#000000" font-family="sans-serif" font-size="13" font-weight="bold" lengthAdjust="spacing" textLength="9" x="50" y="355.541">9</text><text fill="#000000" font-family="sans-serif" font-size="13" lengthAdjust="spacing" textLength="131" x="63" y="355.541">product with reviews</text><!--MD5=[8c3d0d4dbb13ec9bc59ae4f2711e164a]
@startuml
'https://plantuml.com/sequence-diagram

autoactivate on
autonumber

actor "Client" as Client

participant "ReviewController" as CtrlR
participant "reviewService:ReviewService" as SvcR
participant "productRepo:ProductRepository" as RepoP
participant "reviewRepo:ReviewRepository" as RepoR

activate Client

Client -> CtrlR : GET/reviews{SKU}
CtrlR -> SvcR : reviewService.findAllReviews(sku)
SvcR -> RepoP: productRepo.findBySkuProduct(sku)
RepoP - -> SvcR: product
SvcR -> RepoR: reviewRepo.findAll(sku)
RepoR - -> SvcR: reviews
SvcR -> SvcR: product.setReviews(reviews)
SvcR - -> CtrlR: product with reviews
CtrlR - -> "Client": product with reviews



@enduml

@startuml

autoactivate on
autonumber

actor "Client" as Client

participant "ReviewController" as CtrlR
participant "reviewService:ReviewService" as SvcR
participant "productRepo:ProductRepository" as RepoP
participant "reviewRepo:ReviewRepository" as RepoR

activate Client

Client -> CtrlR : GET/reviews{SKU}
CtrlR -> SvcR : reviewService.findAllReviews(sku)
SvcR -> RepoP: productRepo.findBySkuProduct(sku)
RepoP - -> SvcR: product
SvcR -> RepoR: reviewRepo.findAll(sku)
RepoR - -> SvcR: reviews
SvcR -> SvcR: product.setReviews(reviews)
SvcR - -> CtrlR: product with reviews
CtrlR - -> "Client": product with reviews



@enduml

PlantUML version 1.2022.4(Sat Apr 09 14:29:17 WEST 2022)
(GPL source distribution)
Java Runtime: OpenJDK Runtime Environment
JVM: OpenJDK 64-Bit Server VM
Default Encoding: UTF-8
Language: pt
Country: PT
--></g></svg>