<?xml version="1.0" encoding="UTF-8" standalone="no"?><svg xmlns="http://www.w3.org/2000/svg" xmlns:xlink="http://www.w3.org/1999/xlink" contentStyleType="text/css" height="1088px" preserveAspectRatio="none" style="width:1364px;height:1088px;background:#FFFFFF;" version="1.1" viewBox="0 0 1364 1088" width="1364px" zoomAndPan="magnify"><defs/><g><rect fill="#FFFFFF" height="907.4941" style="stroke:#181818;stroke-width:1.0;" width="10" x="23" y="91.4883"/><rect fill="#FFFFFF" height="877.1836" style="stroke:#181818;stroke-width:1.0;" width="10" x="219" y="112.7988"/><rect fill="#FFFFFF" height="856.873" style="stroke:#181818;stroke-width:1.0;" width="10" x="499" y="142.1094"/><rect fill="#FFFFFF" height="41.3105" style="stroke:#181818;stroke-width:1.0;" width="10" x="504" y="919.3613"/><rect fill="#FFFFFF" height="29.3105" style="stroke:#181818;stroke-width:1.0;" width="10" x="756" y="171.4199"/><rect fill="#FFFFFF" height="29.3105" style="stroke:#181818;stroke-width:1.0;" width="10" x="948" y="254.3516"/><rect fill="#FFFFFF" height="29.3105" style="stroke:#181818;stroke-width:1.0;" width="10" x="948" y="312.9727"/><rect fill="#FFFFFF" height="29.3105" style="stroke:#181818;stroke-width:1.0;" width="10" x="948" y="371.5938"/><rect fill="#FFFFFF" height="29.3105" style="stroke:#181818;stroke-width:1.0;" width="10" x="948" y="430.2148"/><rect fill="#FFFFFF" height="29.3105" style="stroke:#181818;stroke-width:1.0;" width="10" x="948" y="488.8359"/><rect fill="#FFFFFF" height="29.3105" style="stroke:#181818;stroke-width:1.0;" width="10" x="948" y="547.457"/><rect fill="#FFFFFF" height="29.3105" style="stroke:#181818;stroke-width:1.0;" width="10" x="948" y="606.0781"/><rect fill="#FFFFFF" height="29.3105" style="stroke:#181818;stroke-width:1.0;" width="10" x="948" y="664.6992"/><rect fill="#FFFFFF" height="29.3105" style="stroke:#181818;stroke-width:1.0;" width="10" x="948" y="723.3203"/><rect fill="#FFFFFF" height="29.3105" style="stroke:#181818;stroke-width:1.0;" width="10" x="948" y="781.9414"/><rect height="716.6309" style="stroke:#000000;stroke-width:1.5;fill:none;" width="966.5" x="391.5" y="215.7305"/><line style="stroke:#181818;stroke-width:0.5;fill:none;stroke-dasharray:5.0,5.0;" x1="28" x2="28" y1="81.4883" y2="1007.9824"/><line style="stroke:#181818;stroke-width:0.5;fill:none;stroke-dasharray:5.0,5.0;" x1="224" x2="224" y1="81.4883" y2="1007.9824"/><line style="stroke:#181818;stroke-width:0.5;fill:none;stroke-dasharray:5.0,5.0;" x1="503.5" x2="503.5" y1="81.4883" y2="1007.9824"/><line style="stroke:#181818;stroke-width:0.5;fill:none;stroke-dasharray:5.0,5.0;" x1="760.5" x2="760.5" y1="81.4883" y2="1007.9824"/><line style="stroke:#181818;stroke-width:0.5;fill:none;stroke-dasharray:5.0,5.0;" x1="952.5" x2="952.5" y1="81.4883" y2="1007.9824"/><line style="stroke:#181818;stroke-width:0.5;fill:none;stroke-dasharray:5.0,5.0;" x1="1262" x2="1262" y1="849.9961" y2="1007.9824"/><text fill="#000000" font-family="sans-serif" font-size="14" lengthAdjust="spacing" textLength="40" x="5" y="78.5352">Client</text><ellipse cx="28" cy="13.5" fill="#E2E2F0" rx="8" ry="8" style="stroke:#181818;stroke-width:0.5;"/><path d="M28,21.5 L28,48.5 M15,29.5 L41,29.5 M28,48.5 L15,63.5 M28,48.5 L41,63.5 " fill="none" style="stroke:#181818;stroke-width:0.5;"/><text fill="#000000" font-family="sans-serif" font-size="14" lengthAdjust="spacing" textLength="40" x="5" y="1020.5176">Client</text><ellipse cx="28" cy="1031.9707" fill="#E2E2F0" rx="8" ry="8" style="stroke:#181818;stroke-width:0.5;"/><path d="M28,1039.9707 L28,1066.9707 M15,1047.9707 L41,1047.9707 M28,1066.9707 L15,1081.9707 M28,1066.9707 L41,1081.9707 " fill="none" style="stroke:#181818;stroke-width:0.5;"/><rect fill="#E2E2F0" height="30.4883" rx="2.5" ry="2.5" style="stroke:#181818;stroke-width:0.5;" width="156" x="146" y="50"/><text fill="#000000" font-family="sans-serif" font-size="14" lengthAdjust="spacing" textLength="142" x="153" y="70.5352">ModeratorController</text><rect fill="#E2E2F0" height="30.4883" rx="2.5" ry="2.5" style="stroke:#181818;stroke-width:0.5;" width="156" x="146" y="1006.9824"/><text fill="#000000" font-family="sans-serif" font-size="14" lengthAdjust="spacing" textLength="142" x="153" y="1027.5176">ModeratorController</text><rect fill="#E2E2F0" height="30.4883" rx="2.5" ry="2.5" style="stroke:#181818;stroke-width:0.5;" width="205" x="401.5" y="50"/><text fill="#000000" font-family="sans-serif" font-size="14" lengthAdjust="spacing" textLength="191" x="408.5" y="70.5352">reviewService:ReviewService</text><rect fill="#E2E2F0" height="30.4883" rx="2.5" ry="2.5" style="stroke:#181818;stroke-width:0.5;" width="205" x="401.5" y="1006.9824"/><text fill="#000000" font-family="sans-serif" font-size="14" lengthAdjust="spacing" textLength="191" x="408.5" y="1027.5176">reviewService:ReviewService</text><rect fill="#E2E2F0" height="30.4883" rx="2.5" ry="2.5" style="stroke:#181818;stroke-width:0.5;" width="255" x="633.5" y="50"/><text fill="#000000" font-family="sans-serif" font-size="14" lengthAdjust="spacing" textLength="241" x="640.5" y="70.5352">reviewRepository:ReviewRepository</text><rect fill="#E2E2F0" height="30.4883" rx="2.5" ry="2.5" style="stroke:#181818;stroke-width:0.5;" width="255" x="633.5" y="1006.9824"/><text fill="#000000" font-family="sans-serif" font-size="14" lengthAdjust="spacing" textLength="241" x="640.5" y="1027.5176">reviewRepository:ReviewRepository</text><rect fill="#E2E2F0" height="30.4883" rx="2.5" ry="2.5" style="stroke:#181818;stroke-width:0.5;" width="109" x="898.5" y="50"/><text fill="#000000" font-family="sans-serif" font-size="14" lengthAdjust="spacing" textLength="95" x="905.5" y="70.5352">review:Review</text><rect fill="#E2E2F0" height="30.4883" rx="2.5" ry="2.5" style="stroke:#181818;stroke-width:0.5;" width="109" x="898.5" y="1006.9824"/><text fill="#000000" font-family="sans-serif" font-size="14" lengthAdjust="spacing" textLength="95" x="905.5" y="1027.5176">review:Review</text><rect fill="#E2E2F0" height="30.4883" rx="2.5" ry="2.5" style="stroke:#181818;stroke-width:0.5;" width="171" x="1177" y="1006.9824"/><text fill="#000000" font-family="sans-serif" font-size="14" lengthAdjust="spacing" textLength="157" x="1184" y="1027.5176">reviewUser:ReviewUser</text><rect fill="#FFFFFF" height="907.4941" style="stroke:#181818;stroke-width:1.0;" width="10" x="23" y="91.4883"/><rect fill="#FFFFFF" height="877.1836" style="stroke:#181818;stroke-width:1.0;" width="10" x="219" y="112.7988"/><rect fill="#FFFFFF" height="856.873" style="stroke:#181818;stroke-width:1.0;" width="10" x="499" y="142.1094"/><rect fill="#FFFFFF" height="41.3105" style="stroke:#181818;stroke-width:1.0;" width="10" x="504" y="919.3613"/><rect fill="#FFFFFF" height="29.3105" style="stroke:#181818;stroke-width:1.0;" width="10" x="756" y="171.4199"/><rect fill="#FFFFFF" height="29.3105" style="stroke:#181818;stroke-width:1.0;" width="10" x="948" y="254.3516"/><rect fill="#FFFFFF" height="29.3105" style="stroke:#181818;stroke-width:1.0;" width="10" x="948" y="312.9727"/><rect fill="#FFFFFF" height="29.3105" style="stroke:#181818;stroke-width:1.0;" width="10" x="948" y="371.5938"/><rect fill="#FFFFFF" height="29.3105" style="stroke:#181818;stroke-width:1.0;" width="10" x="948" y="430.2148"/><rect fill="#FFFFFF" height="29.3105" style="stroke:#181818;stroke-width:1.0;" width="10" x="948" y="488.8359"/><rect fill="#FFFFFF" height="29.3105" style="stroke:#181818;stroke-width:1.0;" width="10" x="948" y="547.457"/><rect fill="#FFFFFF" height="29.3105" style="stroke:#181818;stroke-width:1.0;" width="10" x="948" y="606.0781"/><rect fill="#FFFFFF" height="29.3105" style="stroke:#181818;stroke-width:1.0;" width="10" x="948" y="664.6992"/><rect fill="#FFFFFF" height="29.3105" style="stroke:#181818;stroke-width:1.0;" width="10" x="948" y="723.3203"/><rect fill="#FFFFFF" height="29.3105" style="stroke:#181818;stroke-width:1.0;" width="10" x="948" y="781.9414"/><polygon fill="#181818" points="207,108.7988,217,112.7988,207,116.7988,211,112.7988" style="stroke:#181818;stroke-width:1.0;"/><line style="stroke:#181818;stroke-width:1.0;" x1="33" x2="213" y1="112.7988" y2="112.7988"/><text fill="#000000" font-family="sans-serif" font-size="13" font-weight="bold" lengthAdjust="spacing" textLength="9" x="40" y="108.0566">1</text><text fill="#000000" font-family="sans-serif" font-size="13" lengthAdjust="spacing" textLength="154" x="53" y="108.0566">GET /moderator/reviews</text><polygon fill="#181818" points="487,138.1094,497,142.1094,487,146.1094,491,142.1094" style="stroke:#181818;stroke-width:1.0;"/><line style="stroke:#181818;stroke-width:1.0;" x1="229" x2="493" y1="142.1094" y2="142.1094"/><text fill="#000000" font-family="sans-serif" font-size="13" font-weight="bold" lengthAdjust="spacing" textLength="9" x="236" y="137.3672">2</text><text fill="#000000" font-family="sans-serif" font-size="13" lengthAdjust="spacing" textLength="238" x="249" y="137.3672">reviewService.findAllReviewsPending()</text><polygon fill="#181818" points="744,167.4199,754,171.4199,744,175.4199,748,171.4199" style="stroke:#181818;stroke-width:1.0;"/><line style="stroke:#181818;stroke-width:1.0;" x1="509" x2="750" y1="171.4199" y2="171.4199"/><text fill="#000000" font-family="sans-serif" font-size="13" font-weight="bold" lengthAdjust="spacing" textLength="9" x="516" y="166.6777">3</text><text fill="#000000" font-family="sans-serif" font-size="13" lengthAdjust="spacing" textLength="215" x="529" y="166.6777">reviewRepository.findAllPending();</text><polygon fill="#181818" points="520,196.7305,510,200.7305,520,204.7305,516,200.7305" style="stroke:#181818;stroke-width:1.0;"/><line style="stroke:#181818;stroke-width:1.0;stroke-dasharray:2.0,2.0;" x1="514" x2="760" y1="200.7305" y2="200.7305"/><text fill="#000000" font-family="sans-serif" font-size="13" font-weight="bold" lengthAdjust="spacing" textLength="9" x="526" y="195.9883">4</text><text fill="#000000" font-family="sans-serif" font-size="13" lengthAdjust="spacing" textLength="47" x="539" y="195.9883">reviews</text><path d="M391.5,215.7305 L465.5,215.7305 L465.5,223.041 L455.5,233.041 L391.5,233.041 L391.5,215.7305 " fill="#EEEEEE" style="stroke:#000000;stroke-width:1.5;"/><rect fill="none" height="716.6309" style="stroke:#000000;stroke-width:1.5;" width="966.5" x="391.5" y="215.7305"/><text fill="#000000" font-family="sans-serif" font-size="13" font-weight="bold" lengthAdjust="spacing" textLength="29" x="406.5" y="229.2988">loop</text><text fill="#000000" font-family="sans-serif" font-size="11" font-weight="bold" lengthAdjust="spacing" textLength="167" x="480.5" y="228.3652">[for each "review" in reviews]</text><polygon fill="#181818" points="936,250.3516,946,254.3516,936,258.3516,940,254.3516" style="stroke:#181818;stroke-width:1.0;"/><line style="stroke:#181818;stroke-width:1.0;" x1="509" x2="942" y1="254.3516" y2="254.3516"/><text fill="#000000" font-family="sans-serif" font-size="13" font-weight="bold" lengthAdjust="spacing" textLength="9" x="516" y="249.6094">5</text><text fill="#000000" font-family="sans-serif" font-size="13" lengthAdjust="spacing" textLength="40" x="529" y="249.6094">getId()</text><polygon fill="#181818" points="520,279.6621,510,283.6621,520,287.6621,516,283.6621" style="stroke:#181818;stroke-width:1.0;"/><line style="stroke:#181818;stroke-width:1.0;stroke-dasharray:2.0,2.0;" x1="514" x2="952" y1="283.6621" y2="283.6621"/><text fill="#000000" font-family="sans-serif" font-size="13" font-weight="bold" lengthAdjust="spacing" textLength="9" x="526" y="278.9199">6</text><text fill="#000000" font-family="sans-serif" font-size="13" lengthAdjust="spacing" textLength="12" x="539" y="278.9199">id</text><polygon fill="#181818" points="936,308.9727,946,312.9727,936,316.9727,940,312.9727" style="stroke:#181818;stroke-width:1.0;"/><line style="stroke:#181818;stroke-width:1.0;" x1="509" x2="942" y1="312.9727" y2="312.9727"/><text fill="#000000" font-family="sans-serif" font-size="13" font-weight="bold" lengthAdjust="spacing" textLength="9" x="516" y="308.2305">7</text><text fill="#000000" font-family="sans-serif" font-size="13" lengthAdjust="spacing" textLength="51" x="529" y="308.2305">getSku()</text><polygon fill="#181818" points="520,338.2832,510,342.2832,520,346.2832,516,342.2832" style="stroke:#181818;stroke-width:1.0;"/><line style="stroke:#181818;stroke-width:1.0;stroke-dasharray:2.0,2.0;" x1="514" x2="952" y1="342.2832" y2="342.2832"/><text fill="#000000" font-family="sans-serif" font-size="13" font-weight="bold" lengthAdjust="spacing" textLength="9" x="526" y="337.541">8</text><text fill="#000000" font-family="sans-serif" font-size="13" lengthAdjust="spacing" textLength="23" x="539" y="337.541">sku</text><polygon fill="#181818" points="936,367.5938,946,371.5938,936,375.5938,940,371.5938" style="stroke:#181818;stroke-width:1.0;"/><line style="stroke:#181818;stroke-width:1.0;" x1="509" x2="942" y1="371.5938" y2="371.5938"/><text fill="#000000" font-family="sans-serif" font-size="13" font-weight="bold" lengthAdjust="spacing" textLength="9" x="516" y="366.8516">9</text><text fill="#000000" font-family="sans-serif" font-size="13" lengthAdjust="spacing" textLength="67" x="529" y="366.8516">getStatus()</text><polygon fill="#181818" points="520,396.9043,510,400.9043,520,404.9043,516,400.9043" style="stroke:#181818;stroke-width:1.0;"/><line style="stroke:#181818;stroke-width:1.0;stroke-dasharray:2.0,2.0;" x1="514" x2="952" y1="400.9043" y2="400.9043"/><text fill="#000000" font-family="sans-serif" font-size="13" font-weight="bold" lengthAdjust="spacing" textLength="18" x="526" y="396.1621">10</text><text fill="#000000" font-family="sans-serif" font-size="13" lengthAdjust="spacing" textLength="39" x="548" y="396.1621">status</text><polygon fill="#181818" points="936,426.2148,946,430.2148,936,434.2148,940,430.2148" style="stroke:#181818;stroke-width:1.0;"/><line style="stroke:#181818;stroke-width:1.0;" x1="509" x2="942" y1="430.2148" y2="430.2148"/><text fill="#000000" font-family="sans-serif" font-size="13" font-weight="bold" lengthAdjust="spacing" textLength="18" x="516" y="425.4727">11</text><text fill="#000000" font-family="sans-serif" font-size="13" lengthAdjust="spacing" textLength="56" x="538" y="425.4727">getText()</text><polygon fill="#181818" points="520,455.5254,510,459.5254,520,463.5254,516,459.5254" style="stroke:#181818;stroke-width:1.0;"/><line style="stroke:#181818;stroke-width:1.0;stroke-dasharray:2.0,2.0;" x1="514" x2="952" y1="459.5254" y2="459.5254"/><text fill="#000000" font-family="sans-serif" font-size="13" font-weight="bold" lengthAdjust="spacing" textLength="18" x="526" y="454.7832">12</text><text fill="#000000" font-family="sans-serif" font-size="13" lengthAdjust="spacing" textLength="25" x="548" y="454.7832">text</text><polygon fill="#181818" points="936,484.8359,946,488.8359,936,492.8359,940,488.8359" style="stroke:#181818;stroke-width:1.0;"/><line style="stroke:#181818;stroke-width:1.0;" x1="509" x2="942" y1="488.8359" y2="488.8359"/><text fill="#000000" font-family="sans-serif" font-size="13" font-weight="bold" lengthAdjust="spacing" textLength="18" x="516" y="484.0938">13</text><text fill="#000000" font-family="sans-serif" font-size="13" lengthAdjust="spacing" textLength="68" x="538" y="484.0938">getRating()</text><polygon fill="#181818" points="520,514.1465,510,518.1465,520,522.1465,516,518.1465" style="stroke:#181818;stroke-width:1.0;"/><line style="stroke:#181818;stroke-width:1.0;stroke-dasharray:2.0,2.0;" x1="514" x2="952" y1="518.1465" y2="518.1465"/><text fill="#000000" font-family="sans-serif" font-size="13" font-weight="bold" lengthAdjust="spacing" textLength="18" x="526" y="513.4043">14</text><text fill="#000000" font-family="sans-serif" font-size="13" lengthAdjust="spacing" textLength="37" x="548" y="513.4043">rating</text><polygon fill="#181818" points="936,543.457,946,547.457,936,551.457,940,547.457" style="stroke:#181818;stroke-width:1.0;"/><line style="stroke:#181818;stroke-width:1.0;" x1="509" x2="942" y1="547.457" y2="547.457"/><text fill="#000000" font-family="sans-serif" font-size="13" font-weight="bold" lengthAdjust="spacing" textLength="18" x="516" y="542.7148">15</text><text fill="#000000" font-family="sans-serif" font-size="13" lengthAdjust="spacing" textLength="95" x="538" y="542.7148">getTotalVotes()</text><polygon fill="#181818" points="520,572.7676,510,576.7676,520,580.7676,516,576.7676" style="stroke:#181818;stroke-width:1.0;"/><line style="stroke:#181818;stroke-width:1.0;stroke-dasharray:2.0,2.0;" x1="514" x2="952" y1="576.7676" y2="576.7676"/><text fill="#000000" font-family="sans-serif" font-size="13" font-weight="bold" lengthAdjust="spacing" textLength="18" x="526" y="572.0254">16</text><text fill="#000000" font-family="sans-serif" font-size="13" lengthAdjust="spacing" textLength="64" x="548" y="572.0254">totalVotes</text><polygon fill="#181818" points="936,602.0781,946,606.0781,936,610.0781,940,606.0781" style="stroke:#181818;stroke-width:1.0;"/><line style="stroke:#181818;stroke-width:1.0;" x1="509" x2="942" y1="606.0781" y2="606.0781"/><text fill="#000000" font-family="sans-serif" font-size="13" font-weight="bold" lengthAdjust="spacing" textLength="18" x="516" y="601.3359">17</text><text fill="#000000" font-family="sans-serif" font-size="13" lengthAdjust="spacing" textLength="80" x="538" y="601.3359">getUpVotes()</text><polygon fill="#181818" points="520,631.3887,510,635.3887,520,639.3887,516,635.3887" style="stroke:#181818;stroke-width:1.0;"/><line style="stroke:#181818;stroke-width:1.0;stroke-dasharray:2.0,2.0;" x1="514" x2="952" y1="635.3887" y2="635.3887"/><text fill="#000000" font-family="sans-serif" font-size="13" font-weight="bold" lengthAdjust="spacing" textLength="18" x="526" y="630.6465">18</text><text fill="#000000" font-family="sans-serif" font-size="13" lengthAdjust="spacing" textLength="51" x="548" y="630.6465">upVotes</text><polygon fill="#181818" points="936,660.6992,946,664.6992,936,668.6992,940,664.6992" style="stroke:#181818;stroke-width:1.0;"/><line style="stroke:#181818;stroke-width:1.0;" x1="509" x2="942" y1="664.6992" y2="664.6992"/><text fill="#000000" font-family="sans-serif" font-size="13" font-weight="bold" lengthAdjust="spacing" textLength="18" x="516" y="659.957">19</text><text fill="#000000" font-family="sans-serif" font-size="13" lengthAdjust="spacing" textLength="99" x="538" y="659.957">getDownVotes()</text><polygon fill="#181818" points="520,690.0098,510,694.0098,520,698.0098,516,694.0098" style="stroke:#181818;stroke-width:1.0;"/><line style="stroke:#181818;stroke-width:1.0;stroke-dasharray:2.0,2.0;" x1="514" x2="952" y1="694.0098" y2="694.0098"/><text fill="#000000" font-family="sans-serif" font-size="13" font-weight="bold" lengthAdjust="spacing" textLength="18" x="526" y="689.2676">20</text><text fill="#000000" font-family="sans-serif" font-size="13" lengthAdjust="spacing" textLength="69" x="548" y="689.2676">downVotes</text><polygon fill="#181818" points="936,719.3203,946,723.3203,936,727.3203,940,723.3203" style="stroke:#181818;stroke-width:1.0;"/><line style="stroke:#181818;stroke-width:1.0;" x1="509" x2="942" y1="723.3203" y2="723.3203"/><text fill="#000000" font-family="sans-serif" font-size="13" font-weight="bold" lengthAdjust="spacing" textLength="18" x="516" y="718.5781">21</text><text fill="#000000" font-family="sans-serif" font-size="13" lengthAdjust="spacing" textLength="141" x="538" y="718.5781">getCreationDateTime()</text><polygon fill="#181818" points="520,748.6309,510,752.6309,520,756.6309,516,752.6309" style="stroke:#181818;stroke-width:1.0;"/><line style="stroke:#181818;stroke-width:1.0;stroke-dasharray:2.0,2.0;" x1="514" x2="952" y1="752.6309" y2="752.6309"/><text fill="#000000" font-family="sans-serif" font-size="13" font-weight="bold" lengthAdjust="spacing" textLength="18" x="526" y="747.8887">22</text><text fill="#000000" font-family="sans-serif" font-size="13" lengthAdjust="spacing" textLength="111" x="548" y="747.8887">creationDateTime</text><polygon fill="#181818" points="936,777.9414,946,781.9414,936,785.9414,940,781.9414" style="stroke:#181818;stroke-width:1.0;"/><line style="stroke:#181818;stroke-width:1.0;" x1="509" x2="942" y1="781.9414" y2="781.9414"/><text fill="#000000" font-family="sans-serif" font-size="13" font-weight="bold" lengthAdjust="spacing" textLength="18" x="516" y="777.1992">23</text><text fill="#000000" font-family="sans-serif" font-size="13" lengthAdjust="spacing" textLength="77" x="538" y="777.1992">getFunFact()</text><polygon fill="#181818" points="520,807.252,510,811.252,520,815.252,516,811.252" style="stroke:#181818;stroke-width:1.0;"/><line style="stroke:#181818;stroke-width:1.0;stroke-dasharray:2.0,2.0;" x1="514" x2="952" y1="811.252" y2="811.252"/><text fill="#000000" font-family="sans-serif" font-size="13" font-weight="bold" lengthAdjust="spacing" textLength="18" x="526" y="806.5098">24</text><text fill="#000000" font-family="sans-serif" font-size="13" lengthAdjust="spacing" textLength="47" x="548" y="806.5098">funFact</text><polygon fill="#181818" points="1165,836.5625,1175,840.5625,1165,844.5625,1169,840.5625" style="stroke:#181818;stroke-width:1.0;"/><line style="stroke:#181818;stroke-width:1.0;" x1="509" x2="1171" y1="840.5625" y2="840.5625"/><text fill="#000000" font-family="sans-serif" font-size="13" font-weight="bold" lengthAdjust="spacing" textLength="18" x="516" y="835.8203">25</text><text fill="#000000" font-family="sans-serif" font-size="13" lengthAdjust="spacing" textLength="622" x="538" y="835.8203">new ReviewUser(id,sku,status,text,rating,totalVotes,upVotes,downVotes,creationDateTime,funFact)</text><rect fill="#E2E2F0" height="30.4883" rx="2.5" ry="2.5" style="stroke:#181818;stroke-width:0.5;" width="171" x="1177" y="819.252"/><text fill="#000000" font-family="sans-serif" font-size="14" lengthAdjust="spacing" textLength="157" x="1184" y="839.7871">reviewUser:ReviewUser</text><polygon fill="#181818" points="520,878.0508,510,882.0508,520,886.0508,516,882.0508" style="stroke:#181818;stroke-width:1.0;"/><line style="stroke:#181818;stroke-width:1.0;stroke-dasharray:2.0,2.0;" x1="514" x2="1261.5" y1="882.0508" y2="882.0508"/><text fill="#000000" font-family="sans-serif" font-size="13" font-weight="bold" lengthAdjust="spacing" textLength="18" x="526" y="877.3086">26</text><text fill="#000000" font-family="sans-serif" font-size="13" lengthAdjust="spacing" textLength="68" x="548" y="877.3086">reviewUser</text><line style="stroke:#181818;stroke-width:1.0;" x1="509" x2="556" y1="906.3613" y2="906.3613"/><line style="stroke:#181818;stroke-width:1.0;" x1="556" x2="556" y1="906.3613" y2="919.3613"/><line style="stroke:#181818;stroke-width:1.0;" x1="515" x2="556" y1="919.3613" y2="919.3613"/><polygon fill="#181818" points="525,915.3613,515,919.3613,525,923.3613,521,919.3613" style="stroke:#181818;stroke-width:1.0;"/><text fill="#000000" font-family="sans-serif" font-size="13" font-weight="bold" lengthAdjust="spacing" textLength="18" x="521" y="901.6191">27</text><text fill="#000000" font-family="sans-serif" font-size="13" lengthAdjust="spacing" textLength="204" x="543" y="901.6191">reviewsPending.add(reviewUser);</text><polygon fill="#181818" points="240,956.6719,230,960.6719,240,964.6719,236,960.6719" style="stroke:#181818;stroke-width:1.0;"/><line style="stroke:#181818;stroke-width:1.0;stroke-dasharray:2.0,2.0;" x1="234" x2="498" y1="960.6719" y2="960.6719"/><text fill="#000000" font-family="sans-serif" font-size="13" font-weight="bold" lengthAdjust="spacing" textLength="18" x="246" y="955.9297">28</text><text fill="#000000" font-family="sans-serif" font-size="13" lengthAdjust="spacing" textLength="97" x="268" y="955.9297">reviewsPending</text><polygon fill="#181818" points="44,985.9824,34,989.9824,44,993.9824,40,989.9824" style="stroke:#181818;stroke-width:1.0;"/><line style="stroke:#181818;stroke-width:1.0;stroke-dasharray:2.0,2.0;" x1="38" x2="223" y1="989.9824" y2="989.9824"/><text fill="#000000" font-family="sans-serif" font-size="13" font-weight="bold" lengthAdjust="spacing" textLength="18" x="50" y="985.2402">29</text><text fill="#000000" font-family="sans-serif" font-size="13" lengthAdjust="spacing" textLength="97" x="72" y="985.2402">reviewsPending</text><!--MD5=[d65aaac3f47b5c2e74902cd855451793]
@startuml
'https://plantuml.com/sequence-diagram


autoactivate on
autonumber

actor "Client" as client
participant "ModeratorController" as controller
participant "reviewService:ReviewService" as service
participant "reviewRepository:ReviewRepository" as repository
participant "review:Review" as review
participant "reviewUser:ReviewUser" as reviewUser

activate client

client -> controller: GET /moderator/reviews
controller -> service : reviewService.findAllReviewsPending()
service -> repository: reviewRepository.findAllPending();
repository - -> service: reviews
loop for each "review" in reviews
    service -> review: getId()
    review - -> service: id
    service -> review: getSku()
    review - -> service: sku
    service -> review: getStatus()
    review - -> service: status
    service -> review: getText()
    review - -> service: text
    service -> review: getRating()
    review - -> service: rating
    service -> review: getTotalVotes()
    review - -> service: totalVotes
    service -> review: getUpVotes()
    review - -> service: upVotes
    service -> review: getDownVotes()
    review - -> service: downVotes
    service -> review: getCreationDateTime()
    review - -> service: creationDateTime
    service -> review: getFunFact()
    review - -> service: funFact
    service -> reviewUser**: new ReviewUser(id,sku,status,text,rating,totalVotes,upVotes,downVotes,creationDateTime,funFact)
    reviewUser - -> service: reviewUser
    service -> service: reviewsPending.add(reviewUser);
end loop
service - -> controller: reviewsPending
controller - -> client: reviewsPending

@enduml

@startuml


autoactivate on
autonumber

actor "Client" as client
participant "ModeratorController" as controller
participant "reviewService:ReviewService" as service
participant "reviewRepository:ReviewRepository" as repository
participant "review:Review" as review
participant "reviewUser:ReviewUser" as reviewUser

activate client

client -> controller: GET /moderator/reviews
controller -> service : reviewService.findAllReviewsPending()
service -> repository: reviewRepository.findAllPending();
repository - -> service: reviews
loop for each "review" in reviews
    service -> review: getId()
    review - -> service: id
    service -> review: getSku()
    review - -> service: sku
    service -> review: getStatus()
    review - -> service: status
    service -> review: getText()
    review - -> service: text
    service -> review: getRating()
    review - -> service: rating
    service -> review: getTotalVotes()
    review - -> service: totalVotes
    service -> review: getUpVotes()
    review - -> service: upVotes
    service -> review: getDownVotes()
    review - -> service: downVotes
    service -> review: getCreationDateTime()
    review - -> service: creationDateTime
    service -> review: getFunFact()
    review - -> service: funFact
    service -> reviewUser**: new ReviewUser(id,sku,status,text,rating,totalVotes,upVotes,downVotes,creationDateTime,funFact)
    reviewUser - -> service: reviewUser
    service -> service: reviewsPending.add(reviewUser);
end loop
service - -> controller: reviewsPending
controller - -> client: reviewsPending

@enduml

PlantUML version 1.2022.4(Sat Apr 09 14:29:17 WEST 2022)
(GPL source distribution)
Java Runtime: OpenJDK Runtime Environment
JVM: OpenJDK 64-Bit Server VM
Default Encoding: UTF-8
Language: pt
Country: PT
--></g></svg>