<?xml version="1.0" encoding="UTF-8" standalone="no"?><svg xmlns="http://www.w3.org/2000/svg" xmlns:xlink="http://www.w3.org/1999/xlink" contentStyleType="text/css" height="245px" preserveAspectRatio="none" style="width:301px;height:245px;background:#FFFFFF;" version="1.1" viewBox="0 0 301 245" width="301px" zoomAndPan="magnify"><defs/><g><rect fill="#FFFFFF" height="61.7031" style="stroke:#181818;stroke-width:1.0;" width="10" x="21" y="92.6094"/><rect fill="#FFFFFF" height="30.3516" style="stroke:#181818;stroke-width:1.0;" width="10" x="273" y="114.9609"/><line style="stroke:#181818;stroke-width:0.5;stroke-dasharray:5.0,5.0;" x1="26" x2="26" y1="82.6094" y2="163.3125"/><line style="stroke:#181818;stroke-width:0.5;stroke-dasharray:5.0,5.0;" x1="277.5" x2="277.5" y1="82.6094" y2="163.3125"/><text fill="#000000" font-family="sans-serif" font-size="14" lengthAdjust="spacing" textLength="36" x="5" y="79.5332">Client</text><ellipse cx="26" cy="13.5" fill="#E2E2F0" rx="8" ry="8" style="stroke:#181818;stroke-width:0.5;"/><path d="M26,21.5 L26,48.5 M13,29.5 L39,29.5 M26,48.5 L13,63.5 M26,48.5 L39,63.5 " fill="none" style="stroke:#181818;stroke-width:0.5;"/><text fill="#000000" font-family="sans-serif" font-size="14" lengthAdjust="spacing" textLength="36" x="5" y="176.8457">Client</text><ellipse cx="26" cy="188.4219" fill="#E2E2F0" rx="8" ry="8" style="stroke:#181818;stroke-width:0.5;"/><path d="M26,196.4219 L26,223.4219 M13,204.4219 L39,204.4219 M26,223.4219 L13,238.4219 M26,223.4219 L39,238.4219 " fill="none" style="stroke:#181818;stroke-width:0.5;"/><rect fill="#E2E2F0" height="31.6094" rx="2.5" ry="2.5" style="stroke:#181818;stroke-width:0.5;" width="35" x="260.5" y="50"/><text fill="#000000" font-family="sans-serif" font-size="14" lengthAdjust="spacing" textLength="21" x="267.5" y="71.5332">API</text><rect fill="#E2E2F0" height="31.6094" rx="2.5" ry="2.5" style="stroke:#181818;stroke-width:0.5;" width="35" x="260.5" y="162.3125"/><text fill="#000000" font-family="sans-serif" font-size="14" lengthAdjust="spacing" textLength="21" x="267.5" y="183.8457">API</text><rect fill="#FFFFFF" height="61.7031" style="stroke:#181818;stroke-width:1.0;" width="10" x="21" y="92.6094"/><rect fill="#FFFFFF" height="30.3516" style="stroke:#181818;stroke-width:1.0;" width="10" x="273" y="114.9609"/><polygon fill="#181818" points="261,110.9609,271,114.9609,261,118.9609,265,114.9609" style="stroke:#181818;stroke-width:1.0;"/><line style="stroke:#181818;stroke-width:1.0;" x1="31" x2="267" y1="114.9609" y2="114.9609"/><text fill="#000000" font-family="sans-serif" font-size="13" font-weight="bold" lengthAdjust="spacing" textLength="7" x="38" y="110.1045">1</text><text fill="#000000" font-family="sans-serif" font-size="13" lengthAdjust="spacing" textLength="138" x="49" y="110.1045">GET /moderator/reviews</text><polygon fill="#181818" points="42,141.3125,32,145.3125,42,149.3125,38,145.3125" style="stroke:#181818;stroke-width:1.0;"/><line style="stroke:#181818;stroke-width:1.0;stroke-dasharray:2.0,2.0;" x1="36" x2="277" y1="145.3125" y2="145.3125"/><text fill="#000000" font-family="sans-serif" font-size="13" font-weight="bold" lengthAdjust="spacing" textLength="7" x="48" y="140.4561">2</text><text fill="#000000" font-family="sans-serif" font-size="13" lengthAdjust="spacing" textLength="207" x="59" y="140.4561">Return the list of all pending reviews</text><!--MD5=[f210cb6e3d81ce26c6a3eb9b7f4e0fe8]
@startuml
'https://plantuml.com/sequence-diagram

autoactivate on
autonumber

actor "Client" as client
participant "API" as api

activate client

client -> api: GET /moderator/reviews
api - -> client: Return the list of all pending reviews




@enduml

@startuml

autoactivate on
autonumber

actor "Client" as client
participant "API" as api

activate client

client -> api: GET /moderator/reviews
api - -> client: Return the list of all pending reviews




@enduml

PlantUML version 1.2022.4(Sat Apr 09 14:29:17 BST 2022)
(GPL source distribution)
Java Runtime: OpenJDK Runtime Environment
JVM: OpenJDK 64-Bit Server VM
Default Encoding: Cp1252
Language: pt
Country: PT
--></g></svg>